<svg xmlns="http://www.w3.org/2000/svg" width="133" height="102" viewBox="0 0 133 102">
  <g id="Group_113" data-name="Group 113" transform="translate(-251.962 -257.365)">
    <g id="Group_49" data-name="Group 49" transform="translate(251.962 258.265)">
      <path id="Rectangle_8" data-name="Rectangle 8" d="M.467,0h3.3a.468.468,0,0,1,.468.468v87.5a.467.467,0,0,1-.467.467H.467A.467.467,0,0,1,0,87.966V.467A.467.467,0,0,1,.467,0Z" fill="#5755d9"/>
    </g>
    <g id="Group_50" data-name="Group 50" transform="translate(380.729 257.365)">
      <rect id="Rectangle_9" data-name="Rectangle 9" width="4.233" height="88.433" rx="0.467" fill="#5755d9"/>
    </g>
    <g id="Group_56" data-name="Group 56" transform="translate(254.991 258.458)">
      <g id="Group_55" data-name="Group 55">
        <g id="Group_52" data-name="Group 52">
          <g id="Group_51" data-name="Group 51">
            <path id="Path_38" data-name="Path 38" d="M253.559,344.408l-.163-84.688c0-1.267.425-2.051.946-1.74l20.479,12.233a2.525,2.525,0,0,1,.948,1.995v52.424a3.582,3.582,0,0,1-.94,2.3l-20.327,18.9C253.985,346.321,253.561,345.675,253.559,344.408Z" transform="translate(-253.396 -257.913)" fill="#2b2b5b"/>
          </g>
        </g>
        <g id="Group_54" data-name="Group 54" transform="translate(1.206 3.891)">
          <g id="Group_53" data-name="Group 53">
            <path id="Path_39" data-name="Path 39" d="M254.111,339.215l-.144-79.352,19.968,10.657.008,51.806Z" transform="translate(-253.967 -259.863)" fill="#fff"/>
          </g>
        </g>
      </g>
    </g>
    <g id="Group_62" data-name="Group 62" transform="translate(359.561 257.538)">
      <g id="Group_61" data-name="Group 61">
        <g id="Group_58" data-name="Group 58">
          <g id="Group_57" data-name="Group 57">
            <path id="Path_40" data-name="Path 40" d="M325.434,343.947l.158-84.688c0-1.267-.42-2.051-.942-1.74l-20.481,12.233a2.53,2.53,0,0,0-.946,1.995v52.426a3.581,3.581,0,0,0,.94,2.3l20.327,18.9C325.008,345.86,325.432,345.214,325.434,343.947Z" transform="translate(-303.223 -257.452)" fill="#2b2b5b"/>
          </g>
        </g>
        <g id="Group_60" data-name="Group 60" transform="translate(1.192 3.891)">
          <g id="Group_59" data-name="Group 59">
            <path id="Path_41" data-name="Path 41" d="M323.619,338.754l.144-79.352L303.8,270.059l-.008,51.8Z" transform="translate(-303.787 -259.402)" fill="#fff"/>
          </g>
        </g>
      </g>
    </g>
    <g id="Group_112" data-name="Group 112" transform="translate(259.367 281.629)">
      <g id="Group_64" data-name="Group 64" transform="translate(47.892 33.001)">
        <g id="Group_63" data-name="Group 63">
          <path id="Path_42" data-name="Path 42" d="M295.249,289.391l-16.956-3.322.107,3.478,10.4,9.821Z" transform="translate(-278.293 -286.069)" fill="#dead8e"/>
        </g>
      </g>
      <g id="Group_66" data-name="Group 66" transform="translate(43.834 28.23)">
        <g id="Group_65" data-name="Group 65">
          <path id="Path_43" data-name="Path 43" d="M295.625,323.183l9.446-3.9a12.211,12.211,0,0,0,2.091-1.1l11.056-7.286c2.907-1.582,5.7-9.853,13.544-12.6l-21.35-11.733a6.319,6.319,0,0,0-8.329-2.117L279.5,296.733a5.6,5.6,0,0,0-2.241,7.864L287.3,321.068A6.314,6.314,0,0,0,295.625,323.183Z" transform="translate(-276.445 -283.678)" fill="#eab99a"/>
        </g>
      </g>
      <g id="Group_68" data-name="Group 68" transform="translate(66.172 13.748)">
        <g id="Group_67" data-name="Group 67">
          <path id="Path_44" data-name="Path 44" d="M303.441,314.464,333.3,298.222a6.569,6.569,0,0,0,2.626-9.217l-5.621-9.213a7.4,7.4,0,0,0-9.757-2.48l-29.854,16.243a6.568,6.568,0,0,0-2.628,9.215l5.623,9.213A7.4,7.4,0,0,0,303.441,314.464Z" transform="translate(-287.117 -276.419)" fill="#eab99a"/>
        </g>
      </g>
      <g id="Group_70" data-name="Group 70" transform="translate(89.703 2.155)">
        <g id="Group_69" data-name="Group 69">
          <path id="Path_45" data-name="Path 45" d="M317.9,310.356l6.077-3.306c2.907-1.58,3.64-37.975.733-36.393l-23.4,12.5a5.6,5.6,0,0,0-2.239,7.866l10.5,17.219A6.319,6.319,0,0,0,317.9,310.356Z" transform="translate(-298.256 -270.608)" fill="#5755d9"/>
        </g>
      </g>
      <g id="Group_72" data-name="Group 72" transform="translate(68.568 61.368)">
        <g id="Group_71" data-name="Group 71">
          <path id="Path_46" data-name="Path 46" d="M290.116,300.7c-.727-.491-1.569-.557-1.88-.146s.03,1.139.758,1.63,1.572.559,1.882.148S290.846,301.2,290.116,300.7Z" transform="translate(-288.121 -300.289)" fill="#f3cfb8"/>
        </g>
      </g>
      <g id="Group_74" data-name="Group 74" transform="translate(61.451 56.532)">
        <g id="Group_73" data-name="Group 73">
          <path id="Path_47" data-name="Path 47" d="M286.727,298.28c-.729-.491-1.569-.557-1.882-.148s.032,1.141.758,1.632,1.574.559,1.884.15S287.456,298.771,286.727,298.28Z" transform="translate(-284.731 -297.864)" fill="#f3cfb8"/>
        </g>
      </g>
      <g id="Group_76" data-name="Group 76" transform="translate(54.815 52.71)">
        <g id="Group_75" data-name="Group 75">
          <path id="Path_48" data-name="Path 48" d="M283.567,296.364c-.729-.491-1.572-.557-1.88-.146s.03,1.139.758,1.63,1.569.559,1.88.15S284.3,296.855,283.567,296.364Z" transform="translate(-281.571 -295.949)" fill="#f3cfb8"/>
        </g>
      </g>
      <g id="Group_78" data-name="Group 78" transform="translate(26.484 41.159)">
        <g id="Group_77" data-name="Group 77">
          <path id="Path_49" data-name="Path 49" d="M268.438,303.442h0a3.412,3.412,0,0,0,4.436,1.42l18.834-8.77a3.062,3.062,0,0,0,1.506-4.191h0a3.417,3.417,0,0,0-4.436-1.422l-18.834,8.774A3.058,3.058,0,0,0,268.438,303.442Z" transform="translate(-268.098 -290.159)" fill="#eab99a"/>
        </g>
      </g>
      <g id="Group_80" data-name="Group 80" transform="translate(26.82 47.597)">
        <g id="Group_79" data-name="Group 79">
          <path id="Path_50" data-name="Path 50" d="M268.643,308.325h0a3.845,3.845,0,0,0,4.992,1.6l21.178-9.867a3.442,3.442,0,0,0,1.694-4.712h0a3.842,3.842,0,0,0-4.989-1.6l-21.181,9.867A3.442,3.442,0,0,0,268.643,308.325Z" transform="translate(-268.261 -293.386)" fill="#eab99a"/>
        </g>
      </g>
      <g id="Group_82" data-name="Group 82" transform="translate(30.565 54.825)">
        <g id="Group_81" data-name="Group 81">
          <path id="Path_51" data-name="Path 51" d="M270.428,311.948h0a3.844,3.844,0,0,0,4.991,1.6L296.6,303.68a3.442,3.442,0,0,0,1.694-4.712h0a3.84,3.84,0,0,0-4.989-1.6l-21.183,9.865A3.445,3.445,0,0,0,270.428,311.948Z" transform="translate(-270.048 -297.009)" fill="#eab99a"/>
        </g>
      </g>
      <g id="Group_84" data-name="Group 84" transform="translate(38.918 61.859)">
        <g id="Group_83" data-name="Group 83">
          <path id="Path_52" data-name="Path 52" d="M274.344,312.887h0a3.176,3.176,0,0,0,4.123,1.321l19.8-8.13c1.521-.71-.137-2.488-.887-3.922h0a3.173,3.173,0,0,0-4.123-1.323l-17.511,8.156A2.845,2.845,0,0,0,274.344,312.887Z" transform="translate(-274.027 -300.534)" fill="#eab99a"/>
        </g>
      </g>
      <g id="Group_87" data-name="Group 87" transform="translate(61.949 33.526)">
        <g id="Group_86" data-name="Group 86">
          <g id="Group_85" data-name="Group 85">
            <path id="Path_53" data-name="Path 53" d="M288.965,311.37a1.21,1.21,0,0,1-.807-.642c-3.6-7.421-4.14-13.458-1.6-17.945,3.063-5.392,9.4-6.4,9.666-6.436a1.226,1.226,0,0,1,1.411.968,1.174,1.174,0,0,1-1.024,1.333c-.1.016-5.435.9-7.89,5.259-2.146,3.806-1.582,9.141,1.675,15.852a1.137,1.137,0,0,1-.606,1.544A1.308,1.308,0,0,1,288.965,311.37Z" transform="translate(-284.985 -286.333)" fill="#dead8e"/>
          </g>
        </g>
      </g>
      <g id="Group_89" data-name="Group 89" transform="translate(18.951 32.764)">
        <g id="Group_88" data-name="Group 88">
          <path id="Path_54" data-name="Path 54" d="M298.334,326.087l-9.064-4.632a12.337,12.337,0,0,1-1.986-1.269l-10.37-8.134c-2.754-1.805-4.808-10.27-12.378-13.632l22.317-10a6.35,6.35,0,0,1,8.487-1.45l21.419,14.037a5.576,5.576,0,0,1,1.534,8.016l-11.47,15.617A6.35,6.35,0,0,1,298.334,326.087Z" transform="translate(-264.536 -285.95)" fill="#f5c4a5"/>
        </g>
      </g>
      <g id="Group_91" data-name="Group 91" transform="translate(3.381 15.884)">
        <g id="Group_90" data-name="Group 90">
          <path id="Path_55" data-name="Path 55" d="M288.442,317.059l-28.31-18.549a6.534,6.534,0,0,1-1.8-9.39l6.419-8.736a7.438,7.438,0,0,1,9.943-1.7L303,297.237a6.531,6.531,0,0,1,1.8,9.39l-6.419,8.736A7.433,7.433,0,0,1,288.442,317.059Z" transform="translate(-257.068 -277.489)" fill="#f5c4a5"/>
        </g>
      </g>
      <g id="Group_93" data-name="Group 93">
        <g id="Group_92" data-name="Group 92">
          <path id="Path_56" data-name="Path 56" d="M264.351,313l-6.464-4.329c-2.754-1.805-3.405-40.891-.648-39.084l26.06,17.624a5.579,5.579,0,0,1,1.531,8.016l-11.994,16.325A6.345,6.345,0,0,1,264.351,313Z" transform="translate(-255.468 -269.527)" fill="#3c3c99"/>
        </g>
      </g>
      <g id="Group_95" data-name="Group 95" transform="translate(57.057 71.176)">
        <g id="Group_94" data-name="Group 94">
          <path id="Path_57" data-name="Path 57" d="M283.058,306.053c.507-.7,1.274-1.031,1.715-.746s.384,1.083-.122,1.778-1.276,1.031-1.715.748S282.551,306.747,283.058,306.053Z" transform="translate(-282.638 -305.205)" fill="#f3cfb8"/>
        </g>
      </g>
      <g id="Group_97" data-name="Group 97" transform="translate(59.995 63.517)">
        <g id="Group_96" data-name="Group 96">
          <path id="Path_58" data-name="Path 58" d="M284.455,302.214c.509-.7,1.278-1.031,1.717-.746s.382,1.083-.125,1.781-1.274,1.029-1.713.744S283.95,302.912,284.455,302.214Z" transform="translate(-284.037 -301.366)" fill="#f3cfb8"/>
        </g>
      </g>
      <g id="Group_99" data-name="Group 99" transform="translate(64.943 56.662)">
        <g id="Group_98" data-name="Group 98">
          <path id="Path_59" data-name="Path 59" d="M286.815,298.776c.507-.7,1.274-1.029,1.713-.744s.387,1.081-.12,1.78-1.276,1.031-1.715.744S286.305,299.474,286.815,298.776Z" transform="translate(-286.394 -297.93)" fill="#f3cfb8"/>
        </g>
      </g>
      <g id="Group_101" data-name="Group 101" transform="translate(69.806 50.916)">
        <g id="Group_100" data-name="Group 100">
          <path id="Path_60" data-name="Path 60" d="M289.129,295.9c.507-.7,1.276-1.031,1.715-.744s.384,1.081-.123,1.778-1.276,1.031-1.715.744S288.622,296.593,289.129,295.9Z" transform="translate(-288.71 -295.049)" fill="#f3cfb8"/>
        </g>
      </g>
      <g id="Group_103" data-name="Group 103" transform="translate(61.247 44.659)">
        <g id="Group_102" data-name="Group 102">
          <path id="Path_61" data-name="Path 61" d="M308.811,306.888h0a3.436,3.436,0,0,1-4.548,1.065l-17.987-10.234a3.038,3.038,0,0,1-1.13-4.293h0a3.435,3.435,0,0,1,4.548-1.065l17.987,10.234A3.038,3.038,0,0,1,308.811,306.888Z" transform="translate(-284.674 -291.913)" fill="#f5c4a5"/>
        </g>
      </g>
      <g id="Group_105" data-name="Group 105" transform="translate(55.062 50.169)">
        <g id="Group_104" data-name="Group 104">
          <path id="Path_62" data-name="Path 62" d="M308.877,311.517h0a3.87,3.87,0,0,1-5.116,1.2L283.533,301.2a3.421,3.421,0,0,1-1.272-4.83h0a3.863,3.863,0,0,1,5.114-1.2l20.23,11.507A3.424,3.424,0,0,1,308.877,311.517Z" transform="translate(-281.731 -294.675)" fill="#f5c4a5"/>
        </g>
      </g>
      <g id="Group_107" data-name="Group 107" transform="translate(48.476 55.696)">
        <g id="Group_106" data-name="Group 106">
          <path id="Path_63" data-name="Path 63" d="M305.315,314.286h0a3.865,3.865,0,0,1-5.114,1.2l-14.233-6.123c-1.755-1-8.321-8.559-7.264-10.216h0a3.861,3.861,0,0,1,5.112-1.2l20.232,11.509A3.419,3.419,0,0,1,305.315,314.286Z" transform="translate(-278.589 -297.445)" fill="#f5c4a5"/>
        </g>
      </g>
      <g id="Group_109" data-name="Group 109" transform="translate(41.018 62.664)">
        <g id="Group_108" data-name="Group 108">
          <path id="Path_64" data-name="Path 64" d="M298.219,314.739h0a3.2,3.2,0,0,1-4.28.77l-18.415-10.637c-1.4-.9.5-2.444,1.451-3.767h0c.953-1.325,16.293,5.618,17.693,6.516L297.4,310.7A2.815,2.815,0,0,1,298.219,314.739Z" transform="translate(-275.026 -300.938)" fill="#f5c4a5"/>
        </g>
      </g>
      <g id="Group_111" data-name="Group 111" transform="translate(36.442 26.68)">
        <g id="Group_110" data-name="Group 110">
          <path id="Path_65" data-name="Path 65" d="M295.789,292.1l13.884-7.627-17.032-1.562v0a3.467,3.467,0,0,0-1.916.365l-16.132,8.327a3.061,3.061,0,0,0-1.324,4.261,3.55,3.55,0,0,0,4.514,1.251l14.047-6.1Z" transform="translate(-272.864 -282.901)" fill="#eab99a"/>
        </g>
      </g>
    </g>
  </g>
</svg>
