<svg xmlns="http://www.w3.org/2000/svg" width="124.23" height="94.518" viewBox="0 0 124.23 94.518">
  <g id="Group_450" data-name="Group 450" transform="translate(-61.139 -154.5)">
    <g id="Floor" transform="translate(61.139 248.797)">
      <g id="Group_171" data-name="Group 171" transform="translate(0)">
        <path id="Path_101" data-name="Path 101" d="M185.368,458.674c0,.045-28.1.081-64.286.081s-59.944-.036-59.944-.081,23.748-.081,59.944-.081S185.368,458.629,185.368,458.674Z" transform="translate(-61.139 -458.593)" fill="#263238"/>
      </g>
    </g>
    <g id="Character_2" data-name="Character 2" transform="translate(113.673 154.5)">
      <g id="Group_298" data-name="Group 298" transform="translate(0 0)">
        <path id="Path_102" data-name="Path 102" d="M269.171,294.74l-1.5,13.968s-2.923-4.42-4.9-2.45c-1.885,1.877-5.214,15.582-5.214,15.582s-.046,4.469,2.332,5.649c7.612,3.779,16.091-3.346,16.091-3.346l-1.2-39.942h0A16.022,16.022,0,0,0,269.171,294.74Z" transform="translate(-249.182 -243.982)" fill="#5755d9"/>
        <g id="Group_228" data-name="Group 228" transform="translate(21.11)">
          <g id="Group_227" data-name="Group 227">
            <g id="Group_226" data-name="Group 226">
              <g id="Group_222" data-name="Group 222" transform="translate(4.075)">
                <g id="Group_220" data-name="Group 220" transform="translate(1.793 6.552)">
                  <g id="Group_180" data-name="Group 180">
                    <g id="Group_179" data-name="Group 179">
                      <g id="Group_178" data-name="Group 178">
                        <g id="Group_174" data-name="Group 174">
                          <g id="Group_173" data-name="Group 173">
                            <g id="Group_172" data-name="Group 172">
                              <path id="Path_103" data-name="Path 103" d="M336.265,210.137l-13.183-1.053c-.082-1.539.028-7.494.028-7.494s-5.485-.853-5.553-6.337.883-18.077.883-18.077h0a19.061,19.061,0,0,1,19.152,2.407l.812.626Z" transform="translate(-317.554 -175.628)" fill="#b78876"/>
                            </g>
                          </g>
                        </g>
                        <g id="Group_177" data-name="Group 177" transform="translate(5.535 23.852)">
                          <g id="Group_176" data-name="Group 176">
                            <g id="Group_175" data-name="Group 175">
                              <path id="Path_104" data-name="Path 104" d="M335.415,254.578a12.754,12.754,0,0,0,7.15-2.032s-1.69,3.947-7.162,3.453Z" transform="translate(-335.402 -252.546)" fill="#aa6550"/>
                            </g>
                          </g>
                        </g>
                      </g>
                    </g>
                  </g>
                  <g id="Group_188" data-name="Group 188" transform="translate(19.961 10.089)">
                    <g id="Group_183" data-name="Group 183">
                      <g id="Group_182" data-name="Group 182">
                        <g id="Group_181" data-name="Group 181">
                          <path id="Path_105" data-name="Path 105" d="M382.139,208.338c.094-.04,3.768-1.114,3.648,2.635s-3.859,2.856-3.862,2.748S382.139,208.338,382.139,208.338Z" transform="translate(-381.925 -208.165)" fill="#b78876"/>
                        </g>
                      </g>
                    </g>
                    <g id="Group_187" data-name="Group 187" transform="translate(1.187 1.228)">
                      <g id="Group_186" data-name="Group 186">
                        <g id="Group_185" data-name="Group 185">
                          <g id="Group_184" data-name="Group 184">
                            <path id="Path_106" data-name="Path 106" d="M385.756,215.068c.017-.011.064.048.173.1a.653.653,0,0,0,.488.025,1.616,1.616,0,0,0,.794-1.426,2.159,2.159,0,0,0-.153-.941.755.755,0,0,0-.475-.517.333.333,0,0,0-.391.167c-.053.1-.032.179-.052.184s-.078-.065-.043-.219a.418.418,0,0,1,.155-.23.493.493,0,0,1,.364-.084.918.918,0,0,1,.664.6,2.22,2.22,0,0,1,.193,1.052,1.7,1.7,0,0,1-1,1.589.7.7,0,0,1-.594-.118C385.76,215.159,385.743,215.075,385.756,215.068Z" transform="translate(-385.753 -212.124)" fill="#aa6550"/>
                          </g>
                        </g>
                      </g>
                    </g>
                  </g>
                  <g id="Group_219" data-name="Group 219" transform="translate(1.912 5.486)">
                    <g id="Group_218" data-name="Group 218">
                      <g id="Group_211" data-name="Group 211" transform="translate(0 2.954)">
                        <g id="Group_210" data-name="Group 210">
                          <g id="Group_209" data-name="Group 209">
                            <g id="Group_196" data-name="Group 196">
                              <g id="Group_191" data-name="Group 191" transform="translate(0.183 0.9)">
                                <g id="Group_190" data-name="Group 190">
                                  <g id="Group_189" data-name="Group 189">
                                    <path id="Path_107" data-name="Path 107" d="M324.31,206.456a.783.783,0,0,0,.755.79.749.749,0,0,0,.807-.706.784.784,0,0,0-.754-.791A.75.75,0,0,0,324.31,206.456Z" transform="translate(-324.31 -205.748)" fill="#263238"/>
                                  </g>
                                </g>
                              </g>
                              <g id="Group_195" data-name="Group 195">
                                <g id="Group_194" data-name="Group 194">
                                  <g id="Group_193" data-name="Group 193">
                                    <g id="Group_192" data-name="Group 192">
                                      <path id="Path_108" data-name="Path 108" d="M323.732,203.67c.1.1.69-.337,1.533-.335s1.461.424,1.552.321c.045-.046-.054-.23-.323-.426a2.148,2.148,0,0,0-1.242-.383,2.062,2.062,0,0,0-1.22.394C323.772,203.44,323.685,203.624,323.732,203.67Z" transform="translate(-323.72 -202.847)" fill="#263238"/>
                                    </g>
                                  </g>
                                </g>
                              </g>
                            </g>
                            <g id="Group_204" data-name="Group 204" transform="translate(8.284 0.157)">
                              <g id="Group_199" data-name="Group 199" transform="translate(0.152 1.036)">
                                <g id="Group_198" data-name="Group 198">
                                  <g id="Group_197" data-name="Group 197">
                                    <path id="Path_109" data-name="Path 109" d="M350.926,207.4a.783.783,0,0,0,.755.79.749.749,0,0,0,.807-.706.783.783,0,0,0-.754-.791A.75.75,0,0,0,350.926,207.4Z" transform="translate(-350.926 -206.696)" fill="#263238"/>
                                  </g>
                                </g>
                              </g>
                              <g id="Group_203" data-name="Group 203">
                                <g id="Group_202" data-name="Group 202">
                                  <g id="Group_201" data-name="Group 201">
                                    <g id="Group_200" data-name="Group 200">
                                      <path id="Path_110" data-name="Path 110" d="M350.447,204.177c.1.1.692-.337,1.533-.335s1.461.424,1.552.321c.045-.046-.053-.23-.324-.426a2.147,2.147,0,0,0-1.242-.383,2.064,2.064,0,0,0-1.221.394C350.488,203.947,350.4,204.131,350.447,204.177Z" transform="translate(-350.434 -203.354)" fill="#263238"/>
                                    </g>
                                  </g>
                                </g>
                              </g>
                            </g>
                            <g id="Group_208" data-name="Group 208" transform="translate(3.091 0.208)">
                              <g id="Group_207" data-name="Group 207">
                                <g id="Group_206" data-name="Group 206">
                                  <g id="Group_205" data-name="Group 205">
                                    <path id="Path_111" data-name="Path 111" d="M335.834,210.541a5.562,5.562,0,0,0-1.369-.247c-.215-.022-.419-.065-.455-.212a1.1,1.1,0,0,1,.144-.638l.637-1.639a28.161,28.161,0,0,0,1.429-4.286,28.215,28.215,0,0,0-1.771,4.161c-.213.576-.416,1.124-.61,1.649a1.246,1.246,0,0,0-.112.844.54.54,0,0,0,.354.315,1.478,1.478,0,0,0,.366.051A5.493,5.493,0,0,0,335.834,210.541Z" transform="translate(-333.687 -203.518)" fill="#263238"/>
                                  </g>
                                </g>
                              </g>
                            </g>
                          </g>
                        </g>
                      </g>
                      <g id="Group_214" data-name="Group 214" transform="translate(8.074)">
                        <g id="Group_213" data-name="Group 213">
                          <g id="Group_212" data-name="Group 212">
                            <path id="Path_112" data-name="Path 112" d="M349.763,193.953c.083.229.924.121,1.913.24.991.1,1.788.389,1.919.183.059-.1-.08-.314-.4-.536a3.352,3.352,0,0,0-2.92-.322C349.91,193.664,349.727,193.844,349.763,193.953Z" transform="translate(-349.759 -193.321)" fill="#263238"/>
                          </g>
                        </g>
                      </g>
                      <g id="Group_217" data-name="Group 217" transform="translate(0.3 0.465)">
                        <g id="Group_216" data-name="Group 216">
                          <g id="Group_215" data-name="Group 215">
                            <path id="Path_113" data-name="Path 113" d="M324.711,195.694c.148.191.729-.007,1.427-.016.7-.034,1.289.128,1.425-.072.06-.1-.033-.289-.292-.47a2.066,2.066,0,0,0-2.3.071C324.726,195.4,324.645,195.6,324.711,195.694Z" transform="translate(-324.689 -194.821)" fill="#263238"/>
                          </g>
                        </g>
                      </g>
                    </g>
                  </g>
                </g>
                <g id="Group_221" data-name="Group 221">
                  <path id="Path_114" data-name="Path 114" d="M311.779,159.138a2.025,2.025,0,0,1,.748-1.809,1.436,1.436,0,0,1,1.861.139,1.676,1.676,0,0,1,1.44-2.032c.894-.057,1.657.619,2.521.856a4.072,4.072,0,0,0,2.561-.3c.812-.327,1.57-.778,2.392-1.078a7.012,7.012,0,0,1,8.969,4.118,3.113,3.113,0,0,1,3.3,1.25,5.106,5.106,0,0,1,.782,3.6,11.417,11.417,0,0,1-.627,2.461c0,.071.007.14.006.211-.057,3.016-.4,6.557-1.684,6.577-2.243.034-1.708-4.191-1.708-4.191-2.752-1.063-1.727-5.186-2.415-5.812s-2.128-2.079-7.889.866a11.162,11.162,0,0,1-6.836.739c-.047-.01-.1-.017-.143-.029l-.033-.007c-.018,0-.03-.014-.048-.019a5.191,5.191,0,0,1-1.478-.627,2.921,2.921,0,0,1-1.218-1.354,1.6,1.6,0,0,1,.314-1.717A3.515,3.515,0,0,1,311.779,159.138Z" transform="translate(-311.77 -154.5)" fill="#263238"/>
                </g>
              </g>
              <g id="Group_225" data-name="Group 225" transform="translate(0 37.881)">
                <g id="Group_224" data-name="Group 224">
                  <g id="Group_223" data-name="Group 223">
                    <path id="Path_115" data-name="Path 115" d="M333.994,314.253l.415,7.782.927,11.179H300.1l1.53-16.516-3-26.094c.26-9.221,3.8-13.055,11.046-13.936l-.571.072c1-.118,0,0,.571-.072a23.324,23.324,0,0,0,14.056-.009h0a36.769,36.769,0,0,1,5.819,1.115c5.82,1.115,10.612,5.612,11.775,9.526.958,3.223,7.888,31.17,7.888,31.17H335.429Z" transform="translate(-298.63 -276.659)" fill="#5755d9"/>
                  </g>
                </g>
              </g>
            </g>
          </g>
        </g>
        <path id="Path_116" data-name="Path 116" d="M338.045,232.421a3.762,3.762,0,0,0,.489.958,1.273,1.273,0,0,0,.9.525,1.142,1.142,0,0,0,.966-.527,1.822,1.822,0,0,0,.269-1.1c-.016-.346-.174-.759-.518-.8a.866.866,0,0,0-.418.092l-1.809.734" transform="translate(-304.632 -207.606)" fill="#aa6550"/>
        <g id="Group_229" data-name="Group 229" transform="translate(32.953 23.683)">
          <path id="Path_117" data-name="Path 117" d="M338,233.494a2.623,2.623,0,0,0,.965-.119,1.38,1.38,0,0,0,.729-.663,1.452,1.452,0,0,0,.024-1.183,1.3,1.3,0,0,0-.158-.27c-.072-.075-.059-.072-.137-.06s-.193.076-.29.114l-.3.121c-.387.157-.738.294-1.034.4a3.286,3.286,0,0,1-.985.3,3.306,3.306,0,0,1,.9-.506c.285-.138.626-.3,1.007-.468l.293-.131a3.337,3.337,0,0,1,.33-.136.423.423,0,0,1,.269.008.5.5,0,0,1,.2.158,1.551,1.551,0,0,1,.2.343,1.7,1.7,0,0,1-.055,1.447,1.547,1.547,0,0,1-.918.742,1.455,1.455,0,0,1-.784.03C338.08,233.573,338,233.512,338,233.494Z" transform="translate(-336.82 -230.874)" fill="#263238"/>
        </g>
        <g id="Group_275" data-name="Group 275" transform="translate(0 32.444)">
          <g id="Group_274" data-name="Group 274">
            <g id="Group_233" data-name="Group 233" transform="translate(0.219)">
              <g id="Group_232" data-name="Group 232">
                <g id="Group_231" data-name="Group 231">
                  <g id="Group_230" data-name="Group 230">
                    <path id="Path_118" data-name="Path 118" d="M252.091,300.6l-8.3-25.477-.751-4.278s-2.258-9.536-2.358-10.48c-.116-1.091-.67-1.3-1.068-1.227-.622.109-.983.928-.912,1.867.025.325.615,5.429.615,5.429a12.086,12.086,0,0,0-1.138-1.272c-.859-.875-2.691-1.23-4.506-.976s-2.3.486-2.234,1.2a.907.907,0,0,0,.431.649,1.794,1.794,0,0,0,1.245.285c2.911-.368,3.864,1.106,3.864,1.106l.1.559s-1.909-1.075-3.263-.388a1.723,1.723,0,0,0-.526.408,2.3,2.3,0,0,0-1.611,3.617.954.954,0,0,0,.978.474,1.221,1.221,0,0,0,.482-.369,1.824,1.824,0,0,1,.239-.22l.495,1.529s1.3,3.376,1.693,4.909l4.04,25.655a6.439,6.439,0,0,0,7.475,5.341h0A6.439,6.439,0,0,0,252.091,300.6Z" transform="translate(-231.259 -259.125)" fill="#b78876"/>
                  </g>
                </g>
              </g>
            </g>
            <g id="Group_243" data-name="Group 243" transform="translate(5.63 9.497)">
              <g id="Group_237" data-name="Group 237" transform="translate(0.156 0.151)">
                <g id="Group_236" data-name="Group 236">
                  <g id="Group_235" data-name="Group 235">
                    <g id="Group_234" data-name="Group 234">
                      <path id="Path_119" data-name="Path 119" d="M255.3,296.325a1.338,1.338,0,0,1-1.451-.572c-.34-.443-.52-.988-.827-1.454-.919-1.394-2.832-1.9-3.684-3.337-.118-.2-.2-.485-.032-.643s.411-.071.61.012l5.1,2.144" transform="translate(-249.212 -290.237)" fill="#b78876"/>
                    </g>
                  </g>
                </g>
              </g>
              <g id="Group_242" data-name="Group 242">
                <g id="Group_241" data-name="Group 241">
                  <g id="Group_240" data-name="Group 240">
                    <g id="Group_239" data-name="Group 239">
                      <g id="Group_238" data-name="Group 238">
                        <path id="Path_120" data-name="Path 120" d="M254.668,292.142a2.239,2.239,0,0,0-.527-.288c-.348-.167-.855-.4-1.484-.678l-2.216-.969-.642-.276a1.1,1.1,0,0,0-.817-.14.467.467,0,0,0-.273.447.958.958,0,0,0,.128.434,3.6,3.6,0,0,0,.49.652,21.127,21.127,0,0,0,2.367,1.809,4.175,4.175,0,0,1,.867.9c.219.321.372.667.546.971a1.946,1.946,0,0,0,1.246,1.08.7.7,0,0,0,.6-.087,1.618,1.618,0,0,1-.572-.032,1.885,1.885,0,0,1-1.079-1.067c-.156-.3-.3-.653-.525-1.009a4.3,4.3,0,0,0-.9-.976,24.637,24.637,0,0,1-2.319-1.8,3.4,3.4,0,0,1-.445-.587c-.114-.2-.124-.413-.006-.447.124-.057.358.041.576.135l.646.266,2.243.907c.64.254,1.16.455,1.522.586A2.2,2.2,0,0,0,254.668,292.142Z" transform="translate(-248.708 -289.751)" fill="#aa6550"/>
                      </g>
                    </g>
                  </g>
                </g>
              </g>
            </g>
            <g id="Group_248" data-name="Group 248" transform="translate(0.356 5.923)">
              <g id="Group_247" data-name="Group 247">
                <g id="Group_246" data-name="Group 246">
                  <g id="Group_245" data-name="Group 245">
                    <g id="Group_244" data-name="Group 244">
                      <path id="Path_121" data-name="Path 121" d="M237.457,281.178a2.277,2.277,0,0,0-.441-.947,1.762,1.762,0,0,0-.958-.549,4.5,4.5,0,0,0-1.4-.051,7.168,7.168,0,0,1-1.456.029,2.317,2.317,0,0,1-1.131-.42.9.9,0,0,1-.369-.724.535.535,0,0,1,.066-.291c.02,0,0,.107.013.287a.855.855,0,0,0,.377.613,2.3,2.3,0,0,0,1.065.348,7.921,7.921,0,0,0,1.418-.046,4.378,4.378,0,0,1,1.462.071,1.849,1.849,0,0,1,1.024.639,1.642,1.642,0,0,1,.329.742A.569.569,0,0,1,237.457,281.178Z" transform="translate(-231.702 -278.227)" fill="#aa6550"/>
                    </g>
                  </g>
                </g>
              </g>
            </g>
            <g id="Group_253" data-name="Group 253" transform="translate(7.612 1.517)">
              <g id="Group_252" data-name="Group 252">
                <g id="Group_251" data-name="Group 251">
                  <g id="Group_250" data-name="Group 250">
                    <g id="Group_249" data-name="Group 249">
                      <path id="Path_122" data-name="Path 122" d="M255.13,264.018a5.781,5.781,0,0,1,.124,1.014l.237,2.447c.1.917.2,1.747.273,2.444a5.758,5.758,0,0,1,.088,1.018,4.577,4.577,0,0,1-.23-1c-.11-.622-.233-1.486-.333-2.444s-.158-1.828-.178-2.459A4.565,4.565,0,0,1,255.13,264.018Z" transform="translate(-255.101 -264.018)" fill="#aa6550"/>
                    </g>
                  </g>
                </g>
              </g>
            </g>
            <g id="Group_258" data-name="Group 258" transform="translate(1.7 9.143)">
              <g id="Group_257" data-name="Group 257">
                <g id="Group_256" data-name="Group 256">
                  <g id="Group_255" data-name="Group 255">
                    <g id="Group_254" data-name="Group 254">
                      <path id="Path_123" data-name="Path 123" d="M239.419,289.617a1.228,1.228,0,0,1-.309-.083.949.949,0,0,0-.789.047.509.509,0,0,0-.219.453,2.7,2.7,0,0,0,.119.655,1.147,1.147,0,0,1-.035.812.975.975,0,0,1-.735.488,1.107,1.107,0,0,1-.837-.26,1.384,1.384,0,0,1-.454-.669,4.484,4.484,0,0,1-.12-1.309,2.648,2.648,0,0,1,.169-.869c.085-.2.175-.278.181-.271s-.048.105-.106.3a3.124,3.124,0,0,0-.1.846,4.821,4.821,0,0,0,.156,1.252,1.1,1.1,0,0,0,1.084.782.783.783,0,0,0,.585-.379.976.976,0,0,0,.029-.678,2.688,2.688,0,0,1-.1-.7.659.659,0,0,1,.311-.569.991.991,0,0,1,.892,0A.825.825,0,0,1,239.419,289.617Z" transform="translate(-236.037 -288.611)" fill="#aa6550"/>
                    </g>
                  </g>
                </g>
              </g>
            </g>
            <g id="Group_263" data-name="Group 263" transform="translate(0 8.945)">
              <g id="Group_262" data-name="Group 262">
                <g id="Group_261" data-name="Group 261">
                  <g id="Group_260" data-name="Group 260">
                    <g id="Group_259" data-name="Group 259">
                      <path id="Path_124" data-name="Path 124" d="M232.9,291.124c.009,0,.049.1,0,.291a.89.89,0,0,1-.536.588,1.186,1.186,0,0,1-1.155-.225,1.94,1.94,0,0,1-.644-1.29,2.346,2.346,0,0,1,.29-1.411,2.246,2.246,0,0,1,.833-.829,2.124,2.124,0,0,1,.743-.262.61.61,0,0,1,.288,0,3.685,3.685,0,0,0-.956.388,2.214,2.214,0,0,0-.744.8,2.237,2.237,0,0,0-.251,1.3,1.8,1.8,0,0,0,.562,1.169,1.052,1.052,0,0,0,.987.233.843.843,0,0,0,.509-.477C232.891,291.229,232.882,291.125,232.9,291.124Z" transform="translate(-230.553 -287.971)" fill="#aa6550"/>
                    </g>
                  </g>
                </g>
              </g>
            </g>
            <g id="Group_268" data-name="Group 268" transform="translate(6.231 12.746)">
              <g id="Group_267" data-name="Group 267">
                <g id="Group_266" data-name="Group 266">
                  <g id="Group_265" data-name="Group 265">
                    <g id="Group_264" data-name="Group 264">
                      <path id="Path_125" data-name="Path 125" d="M250.646,302.617a.833.833,0,0,1,.489-.046,1.926,1.926,0,0,1,1.132.529l-.166.068a5.734,5.734,0,0,1,.039-.693,4.39,4.39,0,0,1,.823-2.245,11.113,11.113,0,0,0-.621,2.269c-.028.233-.042.46-.047.67l0,.232-.161-.163a2.019,2.019,0,0,0-1.014-.546C250.829,302.631,250.648,302.644,250.646,302.617Z" transform="translate(-250.646 -300.23)" fill="#aa6550"/>
                    </g>
                  </g>
                </g>
              </g>
            </g>
            <g id="Group_273" data-name="Group 273" transform="translate(3.834 6.449)">
              <g id="Group_272" data-name="Group 272">
                <g id="Group_271" data-name="Group 271">
                  <g id="Group_270" data-name="Group 270">
                    <g id="Group_269" data-name="Group 269">
                      <path id="Path_126" data-name="Path 126" d="M244.282,279.924c.051.019-.107.406-.535.646s-.839.181-.829.128.359-.09.729-.305S244.231,279.893,244.282,279.924Z" transform="translate(-242.917 -279.922)" fill="#aa6550"/>
                    </g>
                  </g>
                </g>
              </g>
            </g>
          </g>
        </g>
        <g id="Group_276" data-name="Group 276" transform="translate(19.36 38.892)">
          <path id="Path_127" data-name="Path 127" d="M301.251,279.921c.008.009-.113.124-.321.362a3.713,3.713,0,0,0-.719,1.155,1.515,1.515,0,0,0-.082.447,1.029,1.029,0,0,0,.118.469,1.652,1.652,0,0,0,.895.664,8.833,8.833,0,0,0,2.836.4c.535.01,1.11.03,1.7.065l.9.105c.307.033.613.116.928.173a9.4,9.4,0,0,1,3.728,1.656,6.854,6.854,0,0,1,1.54,1.615,5.491,5.491,0,0,1,.292.5c.09.181.153.36.228.538a6.554,6.554,0,0,1,.323,1.133,7.192,7.192,0,0,1-.73,4.766,6.947,6.947,0,0,1-3.665,3.129,7.206,7.206,0,0,1-2.283.453,8.8,8.8,0,0,1-2.206-.269,14.113,14.113,0,0,0-2.03-.363,3.521,3.521,0,0,0-1.842.325,4.753,4.753,0,0,0-1.38,1.119c-.386.434-.715.89-1.041,1.323a6.581,6.581,0,0,1-2.119,2.026,2.6,2.6,0,0,1-1.182.309,2.656,2.656,0,0,1-1.007-.188,2.192,2.192,0,0,1-.692-.437,1.654,1.654,0,0,1-.347-.489,1.081,1.081,0,0,1-.109-.476,4.479,4.479,0,0,0,.167.448,1.675,1.675,0,0,0,.353.447,2.148,2.148,0,0,0,.671.39,2.461,2.461,0,0,0,2.061-.163,6.483,6.483,0,0,0,2.02-2c.317-.434.645-.9,1.037-1.352a4.977,4.977,0,0,1,1.445-1.193,3.788,3.788,0,0,1,1.981-.37A14.14,14.14,0,0,1,304.8,297a8.56,8.56,0,0,0,2.134.251,6.93,6.93,0,0,0,2.181-.441,6.652,6.652,0,0,0,3.493-2.988,6.9,6.9,0,0,0,.7-4.551,6.3,6.3,0,0,0-.3-1.084c-.073-.173-.136-.353-.214-.51a5.192,5.192,0,0,0-.272-.471,6.582,6.582,0,0,0-1.463-1.548,9.2,9.2,0,0,0-3.606-1.631c-.308-.059-.606-.143-.908-.179l-.886-.113c-.584-.041-1.14-.067-1.684-.085a8.848,8.848,0,0,1-2.9-.461,1.8,1.8,0,0,1-.963-.759,1.167,1.167,0,0,1-.123-.545,1.639,1.639,0,0,1,.1-.486,3.513,3.513,0,0,1,.79-1.157A1.735,1.735,0,0,1,301.251,279.921Z" transform="translate(-292.987 -279.921)" fill="#fafafa"/>
        </g>
        <g id="Group_277" data-name="Group 277" transform="translate(51.031 50.348)">
          <path id="Path_128" data-name="Path 128" d="M395.3,326.085a2.307,2.307,0,0,1-.148-.7,5.739,5.739,0,0,1,.129-1.944,7.488,7.488,0,0,1,1.2-2.631,8.647,8.647,0,0,1,2.6-2.4,10.98,10.98,0,0,1,3.311-1.25,14.383,14.383,0,0,1,2.867-.3,16.216,16.216,0,0,1,1.935.1,2.822,2.822,0,0,1,.7.122c0,.057-1.011-.054-2.63.008a15.764,15.764,0,0,0-2.809.358,11.2,11.2,0,0,0-3.21,1.238,8.654,8.654,0,0,0-2.527,2.3A7.623,7.623,0,0,0,395.5,323.5a6.423,6.423,0,0,0-.225,1.881A4.277,4.277,0,0,1,395.3,326.085Z" transform="translate(-395.119 -316.865)" fill="#fafafa"/>
        </g>
        <g id="Group_278" data-name="Group 278" transform="translate(53.405 64.957)">
          <path id="Path_129" data-name="Path 129" d="M417.528,363.977a2.227,2.227,0,0,1-.364.545,8.943,8.943,0,0,1-1.249,1.281,10.156,10.156,0,0,1-2.236,1.44,10,10,0,0,1-6.387.771,10.16,10.16,0,0,1-2.514-.867,8.946,8.946,0,0,1-1.518-.947,2.225,2.225,0,0,1-.483-.443,24.053,24.053,0,0,0,2.1,1.184,10.412,10.412,0,0,0,10.895-1.315A23.969,23.969,0,0,0,417.528,363.977Z" transform="translate(-402.776 -363.976)" fill="#fafafa"/>
        </g>
        <g id="Group_279" data-name="Group 279" transform="translate(34.255 63.964)">
          <path id="Path_130" data-name="Path 130" d="M359.349,360.777a1.525,1.525,0,0,1-.283.116,2.131,2.131,0,0,0-.71.473,3.44,3.44,0,0,0-.714,1.145,10.622,10.622,0,0,0-.5,1.75,20.485,20.485,0,0,1-.5,2.186,5.1,5.1,0,0,1-.536,1.155,4.486,4.486,0,0,1-.9,1.01,7.088,7.088,0,0,1-2.562,1.3c-.955.283-1.967.438-2.982.637a12.526,12.526,0,0,0-5.3,2.208,8.688,8.688,0,0,0-1.767,1.781,7.84,7.84,0,0,0-1.008,1.94,6.724,6.724,0,0,0-.327,3.139c.112.747.281,1.14.249,1.15a1.09,1.09,0,0,1-.132-.279,2.78,2.78,0,0,1-.12-.354,4.058,4.058,0,0,1-.121-.5,6.535,6.535,0,0,1,.235-3.231,7.906,7.906,0,0,1,1.007-2.022,8.81,8.81,0,0,1,1.8-1.862,12.6,12.6,0,0,1,5.42-2.289c1.025-.2,2.026-.353,2.956-.624a6.869,6.869,0,0,0,2.461-1.221,4.236,4.236,0,0,0,.856-.936,4.877,4.877,0,0,0,.521-1.086,21.818,21.818,0,0,0,.536-2.149,10.218,10.218,0,0,1,.555-1.771,3.437,3.437,0,0,1,.794-1.166,1.992,1.992,0,0,1,.774-.443A.88.88,0,0,1,359.349,360.777Z" transform="translate(-341.021 -360.774)" fill="#fafafa"/>
        </g>
        <g id="Group_280" data-name="Group 280" transform="translate(39.052 60.732)">
          <path id="Path_131" data-name="Path 131" d="M361.71,352.291a1.293,1.293,0,0,1,.161.634,2.724,2.724,0,0,1-.495,1.716,2.655,2.655,0,0,1-.934.848,2.471,2.471,0,0,1-.673.244,2.711,2.711,0,0,1-.758.031,2.966,2.966,0,0,1-1.489-.6,2.662,2.662,0,0,1-.96-1.438,2.333,2.333,0,0,1,.479-2.115,5.2,5.2,0,0,1,.681-.743,2.55,2.55,0,0,1,.394-.295,1.052,1.052,0,0,1,.486-.17l.042.277-.154.038-.077-.267a2.64,2.64,0,0,1,1.709.093,2.8,2.8,0,0,1,1.079.746,2.34,2.34,0,0,1,.441.714c.063.184.078.285.066.289a4.176,4.176,0,0,0-.625-.891,2.764,2.764,0,0,0-1.04-.644,2.448,2.448,0,0,0-1.546-.041l-.077-.267.152-.042.042.277a1.412,1.412,0,0,0-.692.406,5.039,5.039,0,0,0-.63.708,2.039,2.039,0,0,0-.416,1.85,2.37,2.37,0,0,0,.842,1.266,2.7,2.7,0,0,0,1.327.556,2.47,2.47,0,0,0,.673-.015,2.238,2.238,0,0,0,.6-.2,2.474,2.474,0,0,0,.873-.743,2.753,2.753,0,0,0,.555-1.58C361.751,352.523,361.68,352.3,361.71,352.291Z" transform="translate(-356.488 -350.35)" fill="#fafafa"/>
        </g>
        <g id="Group_281" data-name="Group 281" transform="translate(23.408 52.545)">
          <path id="Path_132" data-name="Path 132" d="M306.9,323.948a.321.321,0,0,1,0,.083c0,.064,0,.145-.008.244-.011.226-.027.539-.046.935-.049.811-.1,1.987-.162,3.439-.122,2.9-.24,6.919-.334,11.355s-.153,8.453-.195,11.361c-.022,1.444-.04,2.617-.052,3.443-.008.4-.015.71-.02.936,0,.1-.007.179-.009.243a.321.321,0,0,1-.008.083.315.315,0,0,1-.008-.083c0-.064,0-.144-.007-.243l-.01-.936c0-.826,0-2,0-3.444.012-2.908.052-6.926.147-11.363s.231-8.452.382-11.357c.079-1.452.145-2.627.213-3.438.032-.4.058-.708.076-.934.01-.1.018-.178.024-.242A.321.321,0,0,1,306.9,323.948Z" transform="translate(-306.041 -323.948)" fill="#263238"/>
        </g>
        <g id="Group_282" data-name="Group 282" transform="translate(18.338 62.639)" opacity="0.2">
          <path id="Path_133" data-name="Path 133" d="M289.69,375.239c1.73.827,3.992-.762,4.876-2.464a50.89,50.89,0,0,0,.4-5.667c-.119-3.548.14-7.06.021-10.608a11.162,11.162,0,0,1-2.532,5.763,3.875,3.875,0,0,0-.951,1.465c-.254,1.022.528,2.864,1.03,3.789,1.537,2.834-1.829,7.741-2.729,7.649" transform="translate(-289.69 -356.5)"/>
        </g>
        <g id="Group_283" data-name="Group 283" transform="translate(50.72 58.23)" opacity="0.2">
          <path id="Path_134" data-name="Path 134" d="M394.117,342.282l1.7,21.212a6.245,6.245,0,0,0,.372,1.965,2.115,2.115,0,0,0,1.428,1.3,2.14,2.14,0,0,0,2.263-1.645,5.92,5.92,0,0,0-.189-3.034c-.42-1.7-.9-3.378-1.374-5.059l-4.151-14.631" transform="translate(-394.117 -342.282)"/>
        </g>
        <g id="Group_284" data-name="Group 284" transform="translate(23.714 67.61)">
          <path id="Path_135" data-name="Path 135" d="M314.6,399.367a4.1,4.1,0,0,0,.472-1.126,5.314,5.314,0,0,0-.527-3.233c-.293-.641-.7-1.306-1.12-2.04a8.879,8.879,0,0,1-1.05-2.506,5.964,5.964,0,0,1,.22-3c.3-1,.757-1.97,1.123-2.987a8.931,8.931,0,0,0,.155-5.931,8.724,8.724,0,0,0-1.175-2.353,9.145,9.145,0,0,0-1.568-1.682,9.289,9.289,0,0,0-2.912-1.624c-.754-.252-1.193-.32-1.187-.35a1.227,1.227,0,0,1,.322.028,6.648,6.648,0,0,1,.9.2,8.838,8.838,0,0,1,3.018,1.566,9.144,9.144,0,0,1,1.641,1.7,8.854,8.854,0,0,1,1.241,2.417,9.12,9.12,0,0,1-.133,6.132c-.373,1.036-.826,2-1.124,2.97a5.7,5.7,0,0,0-.231,2.849,8.76,8.76,0,0,0,.993,2.435c.4.734.806,1.41,1.095,2.077a5.281,5.281,0,0,1,.441,3.355,2.945,2.945,0,0,1-.382.851A1.172,1.172,0,0,1,314.6,399.367Z" transform="translate(-307.028 -372.531)" fill="#fafafa"/>
        </g>
        <g id="Group_285" data-name="Group 285" transform="translate(48.57 39.188)">
          <path id="Path_136" data-name="Path 136" d="M399.009,285.119a1.742,1.742,0,0,1-.3.617,4.513,4.513,0,0,1-1.346,1.306,5.734,5.734,0,0,1-2.644.874,8.745,8.745,0,0,1-3.378-.431,7.039,7.039,0,0,1-2.948-1.711,4.376,4.376,0,0,1-.86-1.241,4.073,4.073,0,0,1-.334-1.271,3.231,3.231,0,0,1,.344-1.846,1.769,1.769,0,0,1,.157-.251,1.087,1.087,0,0,1,.135-.17c.08-.086.125-.127.133-.12.024.019-.138.2-.313.6a3.317,3.317,0,0,0-.23,1.765,3.984,3.984,0,0,0,.35,1.184,4.215,4.215,0,0,0,.829,1.145,6.957,6.957,0,0,0,2.834,1.612,8.793,8.793,0,0,0,3.256.442,5.717,5.717,0,0,0,2.547-.772,4.892,4.892,0,0,0,1.365-1.186C398.871,285.323,398.984,285.107,399.009,285.119Z" transform="translate(-387.183 -280.875)" fill="#fafafa"/>
        </g>
        <g id="Group_286" data-name="Group 286" transform="translate(48.634 43.046)">
          <path id="Path_137" data-name="Path 137" d="M394.907,327.06a.386.386,0,0,1-.033-.087l-.081-.26-.295-1-1.056-3.7-3.424-12.218-1.866-6.732a23.127,23.127,0,0,1-.66-2.983,9.145,9.145,0,0,1-.008-2.664,5.736,5.736,0,0,1,1.754-3.374,4.245,4.245,0,0,1,.871-.585l.251-.107a.393.393,0,0,1,.087-.031,4.854,4.854,0,0,0-1.168.769,5.743,5.743,0,0,0-1.683,3.346,9.12,9.12,0,0,0,.028,2.628,23.5,23.5,0,0,0,.671,2.962l1.878,6.729,3.378,12.23,1.006,3.712.265,1.012.065.264A.4.4,0,0,1,394.907,327.06Z" transform="translate(-387.391 -293.317)" fill="#263238"/>
        </g>
        <g id="Group_287" data-name="Group 287" transform="translate(28.77 4.951)">
          <path id="Path_138" data-name="Path 138" d="M338.083,173.633a3.281,3.281,0,0,0,0-.664,2.588,2.588,0,0,0-.857-1.54,3.488,3.488,0,0,0-2.469-.816,10.754,10.754,0,0,0-3.208.718c-.56.185-1.112.361-1.66.482a8.612,8.612,0,0,1-1.6.2,8.716,8.716,0,0,1-2.7-.355,8.389,8.389,0,0,1-1.691-.717c-.19-.105-.331-.2-.425-.262a.711.711,0,0,1-.14-.1c.009-.014.209.117.594.311a9.324,9.324,0,0,0,1.693.663,8.889,8.889,0,0,0,2.665.316,8.673,8.673,0,0,0,1.574-.2c.538-.121,1.085-.3,1.644-.481a10.62,10.62,0,0,1,3.257-.713,3.572,3.572,0,0,1,2.548.88,2.594,2.594,0,0,1,.842,1.617A1.509,1.509,0,0,1,338.083,173.633Z" transform="translate(-323.331 -170.464)" fill="#455a64"/>
        </g>
        <g id="Group_288" data-name="Group 288" transform="translate(44.372 6.69)">
          <path id="Path_139" data-name="Path 139" d="M377.059,186.77a.434.434,0,0,1-.072-.115c-.044-.078-.1-.2-.17-.35a7.037,7.037,0,0,1-.437-1.363,7.517,7.517,0,0,1-.141-2.12,18.881,18.881,0,0,1,.489-2.548,4.989,4.989,0,0,0,0-2.52,2.551,2.551,0,0,0-.525-.955,1.921,1.921,0,0,0-.788-.517,1.8,1.8,0,0,0-1.354.035,2.608,2.608,0,0,0-.421.295,1.047,1.047,0,0,1,.392-.351,1.82,1.82,0,0,1,1.419-.087,2.013,2.013,0,0,1,.851.535,2.657,2.657,0,0,1,.568,1,5.05,5.05,0,0,1,.011,2.6,20.274,20.274,0,0,0-.5,2.527,7.763,7.763,0,0,0,.105,2.085,8.216,8.216,0,0,0,.383,1.362A4.982,4.982,0,0,1,377.059,186.77Z" transform="translate(-373.645 -176.073)" fill="#455a64"/>
        </g>
        <g id="Group_289" data-name="Group 289" transform="translate(28.186 1.509)">
          <path id="Path_140" data-name="Path 140" d="M337.311,165.533a1.16,1.16,0,0,1,0-.22c.006-.16.014-.369.024-.629a7.289,7.289,0,0,0-.253-2.277,4.023,4.023,0,0,0-.733-1.384,2.829,2.829,0,0,0-1.47-.971,3.711,3.711,0,0,0-1.963.08,9.075,9.075,0,0,0-1.963.89,16.243,16.243,0,0,1-1.946,1,5.959,5.959,0,0,1-2.006.4,6.341,6.341,0,0,1-1.837-.225,7.1,7.1,0,0,1-1.49-.614,6.091,6.091,0,0,1-1.764-1.506,3.833,3.833,0,0,1-.358-.521,1.158,1.158,0,0,1-.106-.193,1.115,1.115,0,0,1,.134.175,4.767,4.767,0,0,0,.379.5,6.307,6.307,0,0,0,1.771,1.446,7.118,7.118,0,0,0,1.469.584,6.269,6.269,0,0,0,1.8.206,5.855,5.855,0,0,0,1.951-.4,16.467,16.467,0,0,0,1.925-.995,9.1,9.1,0,0,1,2-.9,3.842,3.842,0,0,1,2.044-.072,2.957,2.957,0,0,1,1.536,1.03,4.1,4.1,0,0,1,.738,1.435,6.973,6.973,0,0,1,.207,2.313c-.016.274-.038.486-.054.629A1.1,1.1,0,0,1,337.311,165.533Z" transform="translate(-321.449 -159.366)" fill="#455a64"/>
        </g>
        <g id="Group_297" data-name="Group 297" transform="translate(20.789 79.692)">
          <g id="Group_295" data-name="Group 295">
            <g id="Group_291" data-name="Group 291">
              <path id="Path_141" data-name="Path 141" d="M344.609,417.016l23.19-3.459-.375-2.062h12.481l.366,3.173a9.6,9.6,0,0,1-9.325,11.407l-27.047-.3Z" transform="translate(-329.54 -411.495)" fill="#b78876"/>
              <g id="Group_290" data-name="Group 290" transform="translate(0 3.68)">
                <path id="Path_142" data-name="Path 142" d="M314.337,425.6a24.515,24.515,0,0,1-3.085-1.306,10.093,10.093,0,0,0-4.75-.921l-6.447.328a3.158,3.158,0,0,0,1.082,1.442c.684.378,4.692.459,4.692.459l-.205.211a4.637,4.637,0,0,1-3.209,1.4l-.616.016a6.032,6.032,0,0,1-1.346-.263l-1.59-.643c-.481-.217-.99-.182-1.2.3-.189.438-.051,1.042,1.262,1.7.734.37,3.455,1.311,3.455,1.311a6.571,6.571,0,0,0,.158,1.148c.119.4,1.188.792,1.188.792a14.1,14.1,0,0,0,.95,1.7,9.787,9.787,0,0,0,2.123.732,9.13,9.13,0,0,0,5.08-.038l2.457-.734v-7.484" transform="translate(-297.594 -423.361)" fill="#b78876"/>
              </g>
            </g>
            <g id="Group_292" data-name="Group 292" transform="translate(4.669 9.949)">
              <path id="Path_143" data-name="Path 143" d="M315.906,444.439a7.343,7.343,0,0,1-3.253-.856c.018-.044.722.227,1.618.461S315.911,444.392,315.906,444.439Z" transform="translate(-312.652 -443.579)" fill="#aa6550"/>
            </g>
            <g id="Group_293" data-name="Group 293" transform="translate(5.973 11.845)">
              <path id="Path_144" data-name="Path 144" d="M318.579,450.167a2.372,2.372,0,0,1-1.722-.468,31.477,31.477,0,0,0,1.722.468Z" transform="translate(-316.856 -449.693)" fill="#aa6550"/>
            </g>
            <g id="Group_294" data-name="Group 294" transform="translate(38.238 1.95)">
              <path id="Path_145" data-name="Path 145" d="M427.054,423.305c-.029.011-.183-.449-.555-1.128a9,9,0,0,0-.742-1.136,8.988,8.988,0,0,0-2.459-2.207,9.02,9.02,0,0,0-1.209-.616c-.715-.3-1.189-.4-1.181-.431a1.37,1.37,0,0,1,.336.055,3.259,3.259,0,0,1,.386.1c.148.047.32.092.5.168a8.062,8.062,0,0,1,1.243.594,8.462,8.462,0,0,1,2.5,2.245,8.063,8.063,0,0,1,.725,1.172c.095.172.159.338.221.481a3.253,3.253,0,0,1,.142.373A1.373,1.373,0,0,1,427.054,423.305Z" transform="translate(-420.908 -417.785)" fill="#aa6550"/>
            </g>
          </g>
          <g id="Group_296" data-name="Group 296" transform="translate(4.599 5.339)">
            <path id="Path_146" data-name="Path 146" d="M316.7,428.712a2.839,2.839,0,0,1-.5.532,8,8,0,0,1-1.4,1.064,5.585,5.585,0,0,1-1.646.635,2.358,2.358,0,0,1-.726.079,9.411,9.411,0,0,0,2.291-.854,10.968,10.968,0,0,0,1.411-1.01A3.824,3.824,0,0,1,316.7,428.712Z" transform="translate(-312.424 -428.711)" fill="#aa6550"/>
          </g>
        </g>
      </g>
    </g>
    <g id="Character_1" data-name="Character 1" transform="translate(61.139 158.01)">
      <g id="Group_438" data-name="Group 438" transform="translate(0 0)">
        <path id="Path_147" data-name="Path 147" d="M98.43,318.688c.553,0-4.224,12.83-5.453,16.108-.136.363-.231.683-.231.683l33.435.058-.394-31.109a.583.583,0,0,0,0-.061l-2.8-22.253a.547.547,0,0,0-.4-.461,50.753,50.753,0,0,0-9.744-1.726,75.768,75.768,0,0,0-10.466.69,47.685,47.685,0,0,0-8.608,1.675.549.549,0,0,0-.358.594Z" transform="translate(-82.945 -244.529)" fill="#5755d9"/>
        <g id="Group_299" data-name="Group 299" transform="translate(22.111 60.369)">
          <path id="Path_148" data-name="Path 148" d="M141.259,360.5a2.292,2.292,0,0,1-.168.4,3.88,3.88,0,0,1-.235.456,6.53,6.53,0,0,1-.355.581,7.266,7.266,0,0,1-.488.665c-.179.238-.4.466-.627.712a10.025,10.025,0,0,1-3.611,2.365c-.316.11-.613.222-.9.29a7.243,7.243,0,0,1-.805.182,6.455,6.455,0,0,1-.674.093,3.908,3.908,0,0,1-.512.033,2.252,2.252,0,0,1-.437-.008c0-.036.623-.032,1.6-.23a7.728,7.728,0,0,0,.791-.2c.284-.073.576-.188.885-.3a10.449,10.449,0,0,0,3.56-2.331c.226-.239.448-.46.629-.691a7.8,7.8,0,0,0,.5-.646C140.981,361.062,141.227,360.487,141.259,360.5Z" transform="translate(-132.444 -360.503)" fill="#263238"/>
        </g>
        <g id="Group_300" data-name="Group 300" transform="translate(10.936 78.287)" opacity="0.2">
          <path id="Path_149" data-name="Path 149" d="M96.407,427.839a9.841,9.841,0,0,0,9.592-1.2,37.727,37.727,0,0,1,3.518-2.746c1.8-1.007,3.955-1.1,6.016-1.249a29.321,29.321,0,0,0,8.132-1.5,3.251,3.251,0,0,0,1.422-.86,1.266,1.266,0,0,0,.129-1.546,1.9,1.9,0,0,0-1.59-.455,120.047,120.047,0,0,0-24.963,2.948" transform="translate(-96.407 -418.283)"/>
        </g>
        <path id="Path_150" data-name="Path 150" d="M126.458,169.212c2.672-2.721,6.89-4.327,10.384-2.8,2.349,1.028,3.943,3.232,6,4.757,1.5,1.11,3.357,1.968,4.144,3.661.694,1.493.359,3.231.192,4.868s-.05,3.527,1.218,4.576a15.236,15.236,0,0,0,2.292,1.2,6.134,6.134,0,0,1,2.73,4.258,18.172,18.172,0,0,1-.027,5.2l-7.2,1.371-1.182-1.988-.412,3.126-9.184.829Z" transform="translate(-106.203 -165.821)" fill="#263238"/>
        <g id="Group_367" data-name="Group 367" transform="translate(18.486 5.54)">
          <g id="Group_366" data-name="Group 366">
            <g id="Group_365" data-name="Group 365">
              <g id="Group_354" data-name="Group 354">
                <g id="Group_353" data-name="Group 353">
                  <g id="Group_352" data-name="Group 352">
                    <g id="Group_305" data-name="Group 305">
                      <g id="Group_304" data-name="Group 304">
                        <g id="Group_303" data-name="Group 303">
                          <g id="Group_302" data-name="Group 302">
                            <g id="Group_301" data-name="Group 301">
                              <path id="Path_151" data-name="Path 151" d="M121.335,184.507l-.016,2-.566,30.018c-.049,3.48,3.28,6.442,7.006,6.467h0c3.763.025,5.3-2.8,5.406-6.317.113-3.689.3-7.57.3-7.57s4.774-.658,5.929-6.831a66.272,66.272,0,0,0,.413-12.269,6.549,6.549,0,0,0-7.053-6.3Z" transform="translate(-120.752 -183.686)" fill="#ffbe9d"/>
                            </g>
                          </g>
                        </g>
                      </g>
                    </g>
                    <g id="Group_317" data-name="Group 317" transform="translate(14.743 8.043)">
                      <g id="Group_310" data-name="Group 310" transform="translate(1.087 1.527)">
                        <g id="Group_309" data-name="Group 309">
                          <g id="Group_308" data-name="Group 308">
                            <g id="Group_307" data-name="Group 307">
                              <g id="Group_306" data-name="Group 306">
                                <path id="Path_152" data-name="Path 152" d="M173.39,215.289a.8.8,0,0,1-.789.781.76.76,0,0,1-.8-.739.8.8,0,0,1,.788-.782A.761.761,0,0,1,173.39,215.289Z" transform="translate(-171.801 -214.548)" fill="#263238"/>
                              </g>
                            </g>
                          </g>
                        </g>
                      </g>
                      <g id="Group_316" data-name="Group 316">
                        <g id="Group_315" data-name="Group 315">
                          <g id="Group_314" data-name="Group 314">
                            <g id="Group_313" data-name="Group 313">
                              <g id="Group_312" data-name="Group 312">
                                <g id="Group_311" data-name="Group 311">
                                  <path id="Path_153" data-name="Path 153" d="M171.438,210.5c-.1.1-.691-.362-1.547-.383s-1.495.389-1.585.282c-.044-.048.061-.232.34-.424a2.185,2.185,0,0,1,1.272-.354,2.1,2.1,0,0,1,1.228.434C171.4,210.268,171.488,210.458,171.438,210.5Z" transform="translate(-168.297 -209.624)" fill="#263238"/>
                                </g>
                              </g>
                            </g>
                          </g>
                        </g>
                      </g>
                    </g>
                    <g id="Group_329" data-name="Group 329" transform="translate(6.328 7.971)">
                      <g id="Group_322" data-name="Group 322" transform="translate(1.073 1.599)">
                        <g id="Group_321" data-name="Group 321">
                          <g id="Group_320" data-name="Group 320">
                            <g id="Group_319" data-name="Group 319">
                              <g id="Group_318" data-name="Group 318">
                                <path id="Path_154" data-name="Path 154" d="M146.209,215.289a.8.8,0,0,1-.789.781.761.761,0,0,1-.8-.739.8.8,0,0,1,.788-.782A.762.762,0,0,1,146.209,215.289Z" transform="translate(-144.62 -214.548)" fill="#263238"/>
                              </g>
                            </g>
                          </g>
                        </g>
                      </g>
                      <g id="Group_328" data-name="Group 328">
                        <g id="Group_327" data-name="Group 327">
                          <g id="Group_326" data-name="Group 326">
                            <g id="Group_325" data-name="Group 325">
                              <g id="Group_324" data-name="Group 324">
                                <g id="Group_323" data-name="Group 323">
                                  <path id="Path_155" data-name="Path 155" d="M144.3,210.27c-.1.1-.692-.361-1.547-.383s-1.495.389-1.585.282c-.044-.047.061-.232.34-.423a2.182,2.182,0,0,1,1.272-.354,2.1,2.1,0,0,1,1.228.434C144.266,210.035,144.351,210.225,144.3,210.27Z" transform="translate(-141.159 -209.391)" fill="#263238"/>
                                </g>
                              </g>
                            </g>
                          </g>
                        </g>
                      </g>
                    </g>
                    <g id="Group_335" data-name="Group 335" transform="translate(12.195 8.141)">
                      <g id="Group_334" data-name="Group 334">
                        <g id="Group_333" data-name="Group 333">
                          <g id="Group_332" data-name="Group 332">
                            <g id="Group_331" data-name="Group 331">
                              <g id="Group_330" data-name="Group 330">
                                <path id="Path_156" data-name="Path 156" d="M160.284,217.081a5.675,5.675,0,0,1,1.4-.212c.219-.016.427-.054.468-.2a1.115,1.115,0,0,0-.128-.652l-.6-1.681a28.643,28.643,0,0,1-1.331-4.392,28.633,28.633,0,0,1,1.682,4.274c.2.59.391,1.152.573,1.691a1.264,1.264,0,0,1,.09.861.548.548,0,0,1-.368.309,1.483,1.483,0,0,1-.372.041A5.58,5.58,0,0,1,160.284,217.081Z" transform="translate(-160.079 -209.941)" fill="#263238"/>
                              </g>
                            </g>
                          </g>
                        </g>
                      </g>
                    </g>
                    <g id="Group_340" data-name="Group 340" transform="translate(4.47 22.979)">
                      <g id="Group_339" data-name="Group 339">
                        <g id="Group_338" data-name="Group 338">
                          <g id="Group_337" data-name="Group 337">
                            <g id="Group_336" data-name="Group 336">
                              <path id="Path_157" data-name="Path 157" d="M143.408,260.233a15.777,15.777,0,0,1-8.242-2.444s1.9,4.315,8.118,3.905Z" transform="translate(-135.166 -257.789)" fill="#eb996e"/>
                            </g>
                          </g>
                        </g>
                      </g>
                    </g>
                    <g id="Group_345" data-name="Group 345" transform="translate(9.414 16.718)">
                      <g id="Group_344" data-name="Group 344">
                        <g id="Group_343" data-name="Group 343">
                          <g id="Group_342" data-name="Group 342">
                            <g id="Group_341" data-name="Group 341">
                              <path id="Path_158" data-name="Path 158" d="M153.678,238.214a1.542,1.542,0,0,0-1.366-.611,1.408,1.408,0,0,0-.986.495.892.892,0,0,0-.1,1.018,1.035,1.035,0,0,0,1.114.315,3.243,3.243,0,0,0,1.112-.623.946.946,0,0,0,.251-.246.287.287,0,0,0,.007-.319" transform="translate(-151.11 -237.598)" fill="#eb996e"/>
                            </g>
                          </g>
                        </g>
                      </g>
                    </g>
                    <g id="Group_351" data-name="Group 351" transform="translate(9.713 15.804)">
                      <g id="Group_350" data-name="Group 350">
                        <g id="Group_349" data-name="Group 349">
                          <g id="Group_348" data-name="Group 348">
                            <g id="Group_347" data-name="Group 347">
                              <g id="Group_346" data-name="Group 346">
                                <path id="Path_159" data-name="Path 159" d="M152.229,234.651c.14,0,.116.924.892,1.606s1.768.606,1.772.736c.011.059-.225.174-.644.174a2.312,2.312,0,0,1-1.48-.562,2.015,2.015,0,0,1-.689-1.345C152.055,234.87,152.165,234.644,152.229,234.651Z" transform="translate(-152.076 -234.65)" fill="#263238"/>
                              </g>
                            </g>
                          </g>
                        </g>
                      </g>
                    </g>
                  </g>
                </g>
              </g>
              <g id="Group_359" data-name="Group 359" transform="translate(5.826 5.673)">
                <g id="Group_358" data-name="Group 358">
                  <g id="Group_357" data-name="Group 357">
                    <g id="Group_356" data-name="Group 356">
                      <g id="Group_355" data-name="Group 355">
                        <path id="Path_160" data-name="Path 160" d="M143.457,202.669c-.091.23-.942.1-1.949.19-1.009.073-1.827.345-1.954.132-.057-.1.09-.316.424-.532a3.4,3.4,0,0,1,2.974-.246C143.316,202.372,143.5,202.56,143.457,202.669Z" transform="translate(-139.542 -201.981)" fill="#263238"/>
                      </g>
                    </g>
                  </g>
                </g>
              </g>
              <g id="Group_364" data-name="Group 364" transform="translate(14.374 6.257)">
                <g id="Group_363" data-name="Group 363">
                  <g id="Group_362" data-name="Group 362">
                    <g id="Group_361" data-name="Group 361">
                      <g id="Group_360" data-name="Group 360">
                        <path id="Path_161" data-name="Path 161" d="M170.65,204.8c-.189.189-.9-.032-1.763-.065-.861-.058-1.6.087-1.759-.121-.071-.1.049-.292.374-.468a2.846,2.846,0,0,1,1.442-.279,2.793,2.793,0,0,1,1.4.429C170.638,204.5,170.733,204.707,170.65,204.8Z" transform="translate(-167.108 -203.863)" fill="#263238"/>
                      </g>
                    </g>
                  </g>
                </g>
              </g>
            </g>
          </g>
        </g>
        <path id="Path_162" data-name="Path 162" d="M73.808,285.767s-9.972,2.34-11.906,11.8c-.889,4.345-2.134,29.3,3.678,33.172,7.5,5,17.038.45,17.038.45l-1.225-12.068H75.2L74.367,305.9C74.6,306.91,73.808,285.767,73.808,285.767Z" transform="translate(-61.139 -248.573)" fill="#5755d9"/>
        <path id="Path_163" data-name="Path 163" d="M198.268,327.36a7.711,7.711,0,0,0,6.917-8.005l-4.072-17.31s-2.641-14.855-10.994-16.194l2.846,22.647-.271,4.773s.129,3.157.45,9.073Z" transform="translate(-150.123 -248.63)" fill="#5755d9"/>
        <g id="Group_368" data-name="Group 368" transform="translate(42.743 67.856)">
          <path id="Path_164" data-name="Path 164" d="M205.461,384.689a10.661,10.661,0,0,0-1.5.165,6.107,6.107,0,0,0-4.792,4.892,10.565,10.565,0,0,0-.134,1.507,1.67,1.67,0,0,1-.047-.408,5.425,5.425,0,0,1,.069-1.118,6,6,0,0,1,4.882-4.984,5.415,5.415,0,0,1,1.117-.092A1.67,1.67,0,0,1,205.461,384.689Z" transform="translate(-198.978 -384.648)" fill="#263238"/>
        </g>
        <path id="Path_165" data-name="Path 165" d="M96.152,173.563a12.866,12.866,0,0,1,2.33,5.347c.33,1.313-.738,2.24-1.8,3.042a.855.855,0,0,1-1.351-.495h0s.368,4.108-1.117,5.951a3.554,3.554,0,0,0-.561,2.9,4.927,4.927,0,0,0,1.327,2.513,6.2,6.2,0,0,1,1.013,6.985,18.353,18.353,0,0,0-.944,1.687,2.542,2.542,0,0,0-.2,1.09.864.864,0,0,1-.732.918,67.818,67.818,0,0,1-15.412.463.845.845,0,0,1-.755-.639,7.512,7.512,0,0,1,1.129-5.127c.961-1.751,2.184-3.431,2.515-5.4.311-1.853-.195-3.852.55-5.578.914-2.118,3.4-3.119,4.642-5.062,1.173-1.833,1.079-4.236,2.13-6.142a5.875,5.875,0,0,1,7.234-2.459" transform="translate(-72.656 -170.864)" fill="#263238"/>
        <path id="Path_166" data-name="Path 166" d="M137.3,176.455c1.95,1,2.851,3.387,4.746,4.492,1.725,1.005,3.878.74,5.853.443l-.22-1.314a3.546,3.546,0,0,0,.732,1.064,1.2,1.2,0,0,0,1.2.284c.663-.267.75-1.178.581-1.872a6.427,6.427,0,0,0-1.724-2.92,8.743,8.743,0,0,0-11.406-.912" transform="translate(-113.519 -171.481)" fill="#263238"/>
        <g id="Group_369" data-name="Group 369" transform="translate(42.044 49.116)">
          <path id="Path_167" data-name="Path 167" d="M196.748,324.214a1.387,1.387,0,0,1,.019.243q.008.262.021.7c.012.607.043,1.484.089,2.568.089,2.168.291,5.158.536,8.46s.429,6.3.489,8.469c.032,1.085.045,1.964.037,2.571,0,.291-.007.524-.009.7a1.388,1.388,0,0,1-.014.244,1.371,1.371,0,0,1-.018-.243q-.008-.262-.021-.7c-.012-.606-.042-1.484-.089-2.568-.089-2.168-.291-5.158-.536-8.461s-.429-6.3-.489-8.468c-.032-1.085-.045-1.964-.038-2.571,0-.292.007-.524.009-.7A1.372,1.372,0,0,1,196.748,324.214Z" transform="translate(-196.724 -324.214)" fill="#263238"/>
        </g>
        <g id="Group_370" data-name="Group 370" transform="translate(12.953 53.463)">
          <path id="Path_168" data-name="Path 168" d="M104.021,355.313a.716.716,0,0,1-.022-.173c-.008-.131-.019-.3-.032-.5-.025-.455-.06-1.075-.1-1.831-.088-1.546-.224-3.681-.385-6.038s-.311-4.472-.42-6.038c-.05-.756-.091-1.376-.12-1.83-.01-.2-.019-.366-.026-.5a.72.72,0,0,1,0-.175.706.706,0,0,1,.031.172c.015.131.033.3.056.5.042.454.1,1.072.171,1.826.136,1.543.306,3.676.467,6.035s.279,4.5.338,6.044c.027.774.048,1.4.051,1.834,0,.2,0,.367,0,.5A.705.705,0,0,1,104.021,355.313Z" transform="translate(-102.911 -338.232)" fill="#263238"/>
        </g>
        <g id="Group_371" data-name="Group 371" transform="translate(10.674 70.532)">
          <path id="Path_169" data-name="Path 169" d="M98.951,393.288c0,.029-.324.043-.812.208a3.609,3.609,0,0,0-2.447,2.9c-.08.509-.038.833-.067.835a.574.574,0,0,1-.048-.224,2.959,2.959,0,0,1,0-.625,3.477,3.477,0,0,1,2.526-3,2.941,2.941,0,0,1,.616-.108A.58.58,0,0,1,98.951,393.288Z" transform="translate(-95.561 -393.276)" fill="#263238"/>
        </g>
        <g id="Group_372" data-name="Group 372" transform="translate(13.338 70.467)">
          <path id="Path_170" data-name="Path 170" d="M112.293,405.211a.872.872,0,0,1-.036-.191c-.018-.143-.042-.326-.071-.551l-.232-2.028c-.182-1.732-.43-4.091-.7-6.7l-.26-2.594.077.07-4.959-.029-1.44-.023-.385-.013a.494.494,0,0,1-.133-.014.507.507,0,0,1,.133-.013l.385-.013,1.44-.023,4.959-.029h.07l.007.07.266,2.593c.255,2.608.487,4.968.656,6.7.075.843.136,1.532.18,2.033.017.226.03.41.041.554A.872.872,0,0,1,112.293,405.211Z" transform="translate(-104.151 -393.065)" fill="#263238"/>
        </g>
        <g id="Group_373" data-name="Group 373" transform="translate(1.344 76.182)">
          <path id="Path_171" data-name="Path 171" d="M85.608,417.926a1.449,1.449,0,0,1-.234.086l-.68.217c-.593.183-1.451.446-2.524.732a31.787,31.787,0,0,1-3.819.793,13.2,13.2,0,0,1-4.765-.226,20.254,20.254,0,0,1-2.386-.672c-.377-.134-.745-.273-1.1-.421-.177-.075-.354-.144-.523-.235l-.254-.128-.236-.152a5.821,5.821,0,0,1-1.5-1.467,10.186,10.186,0,0,1-.921-1.572,18.534,18.534,0,0,1-.938-2.458c-.091-.3-.158-.528-.2-.686a1.456,1.456,0,0,1-.057-.243,1.433,1.433,0,0,1,.088.233l.229.676a20.89,20.89,0,0,0,.981,2.427,10.353,10.353,0,0,0,.926,1.543,5.735,5.735,0,0,0,1.469,1.421l.229.146.247.122c.162.087.34.155.516.229.354.145.719.282,1.094.414a20.563,20.563,0,0,0,2.367.664,13.243,13.243,0,0,0,4.711.236,33.607,33.607,0,0,0,3.811-.756c1.074-.271,1.937-.517,2.535-.682l.689-.188A1.458,1.458,0,0,1,85.608,417.926Z" transform="translate(-65.472 -411.495)" fill="#263238"/>
        </g>
        <path id="Path_172" data-name="Path 172" d="M96.729,185.976a3.964,3.964,0,0,0-.906-4.337,4.462,4.462,0,0,0-4.391-.951,3.384,3.384,0,0,0-1.714,1.172,3.131,3.131,0,0,0,.174,3.625,4.569,4.569,0,0,0,3.39,1.647,8.688,8.688,0,0,0,3.776-.781" transform="translate(-80.511 -175.929)" fill="#263238"/>
        <g id="Group_381" data-name="Group 381" transform="translate(20.353 56.327)">
          <g id="Group_376" data-name="Group 376" transform="translate(4.642)">
            <path id="Path_173" data-name="Path 173" d="M145.762,352.291c2.169,1.79,7.273,6.025,7.273,6.025l2.858-.509-8.657-7.283a1.15,1.15,0,0,0-1.573.087h0A1.149,1.149,0,0,0,145.762,352.291Z" transform="translate(-144.228 -349.389)" fill="#22224c"/>
            <path id="Path_174" data-name="Path 174" d="M143.049,349.437l-1.124-1.015a.549.549,0,0,1-.052-.762h0a.549.549,0,0,1,.791-.051l1.081.991Z" transform="translate(-141.744 -347.466)" fill="#22224c"/>
            <g id="Group_374" data-name="Group 374" transform="translate(3.138 2.514)">
              <path id="Path_175" data-name="Path 175" d="M153.375,355.577a7.524,7.524,0,0,1-1.51,1.6,7.5,7.5,0,0,1,1.51-1.6Z" transform="translate(-151.862 -355.575)" fill="#fafafa"/>
            </g>
            <g id="Group_375" data-name="Group 375" transform="translate(0.887 1.026)">
              <path id="Path_176" data-name="Path 176" d="M148.454,355.833a5.58,5.58,0,0,1-.864-.565c-.517-.373-1.214-.912-1.947-1.551a3.22,3.22,0,0,1-.912-1.049,1.5,1.5,0,0,1-.029-1.14,1.431,1.431,0,0,1,.459-.616.575.575,0,0,1,.246-.134,2.591,2.591,0,0,1-.206.182,1.5,1.5,0,0,0-.392.607,1.42,1.42,0,0,0,.057,1.039,3.235,3.235,0,0,0,.882.989c.73.636,1.413,1.187,1.911,1.582A7.892,7.892,0,0,1,148.454,355.833Z" transform="translate(-144.604 -350.776)" fill="#fafafa"/>
            </g>
          </g>
          <g id="Group_380" data-name="Group 380" transform="translate(0 8.313)">
            <path id="Path_177" data-name="Path 177" d="M126.774,381.145c2.056-.691,4.241-.226,6.3-.916a5.454,5.454,0,0,0,1.943-.958,12.8,12.8,0,0,0,1.506-2.134c1.557-2.1,4.464-2.53,7.061-2.8a5.255,5.255,0,0,1,1.818.026,1.781,1.781,0,0,1,1.322,1.14,1.094,1.094,0,0,1-.82,1.379,1.315,1.315,0,0,1,1.072,1.163c.1.56.012,1.14.087,1.7a14.777,14.777,0,0,1,.514,2.335,2.943,2.943,0,0,1-1.953,2.417,12.911,12.911,0,0,1-3.214.629c-5.325.749-9.375,3.773-14.509,6.056" transform="translate(-126.774 -374.273)" fill="#ffbe9d"/>
            <path id="Path_178" data-name="Path 178" d="M187.18,380.8a.735.735,0,0,0,1.049.216,1.125,1.125,0,0,0,.4-1.084,2.524,2.524,0,0,0-.514-1.091,14.04,14.04,0,0,0-1.49-1.646l-1.65,1.381Z" transform="translate(-166.929 -376.288)" fill="#ffbe9d"/>
            <g id="Group_377" data-name="Group 377" transform="translate(15.235 2.611)">
              <path id="Path_179" data-name="Path 179" d="M180.312,382.788c0,.051-1.01-.032-2.23.157s-2.16.556-2.177.509a2.174,2.174,0,0,1,.6-.278,8.277,8.277,0,0,1,3.149-.476A2.189,2.189,0,0,1,180.312,382.788Z" transform="translate(-175.903 -382.691)" fill="#eb996e"/>
            </g>
            <g id="Group_378" data-name="Group 378" transform="translate(16.59 5.68)">
              <path id="Path_180" data-name="Path 180" d="M184.053,392.848c-.01.049-.848-.123-1.893-.093s-1.874.235-1.886.187a6.069,6.069,0,0,1,3.779-.094Z" transform="translate(-180.274 -392.591)" fill="#eb996e"/>
            </g>
            <g id="Group_379" data-name="Group 379" transform="translate(19.391 1.003)">
              <path id="Path_181" data-name="Path 181" d="M190.11,381.486c-.026,0,0-.243-.045-.621a3.271,3.271,0,0,0-.5-1.377,3.151,3.151,0,0,0-.212-.287l-.047-.058.051-.051a1.494,1.494,0,0,0,.429-1.091c-.008-.308-.093-.485-.069-.495a.816.816,0,0,1,.173.488,1.507,1.507,0,0,1-.422,1.212l0-.109a3.011,3.011,0,0,1,.226.3,2.968,2.968,0,0,1,.478,1.456A1.393,1.393,0,0,1,190.11,381.486Z" transform="translate(-189.307 -377.506)" fill="#eb996e"/>
            </g>
          </g>
        </g>
        <path id="Path_182" data-name="Path 182" d="M192.058,388.247l2.706,2.538.346,1.508-2.5-.565A10.833,10.833,0,0,1,192.058,388.247Z" transform="translate(-151.452 -319.274)" fill="#455a64"/>
        <path id="Path_183" data-name="Path 183" d="M147.8,397.128c-.055.1-14.6,7.269-14.6,7.269v1.542l14.839-7.719,18.412-.695v-1.092Z" transform="translate(-110.856 -324.922)" fill="#f5f5f5"/>
        <path id="Path_184" data-name="Path 184" d="M133.2,408.589c.1-.069,16.055-1.508,16.055-1.508l17.2-7.128-18.412.695L133.2,408.368Z" transform="translate(-110.856 -327.351)" fill="#263238"/>
        <g id="Group_385" data-name="Group 385" transform="translate(37.601 73.712)">
          <path id="Path_185" data-name="Path 185" d="M182.432,407.239c-.129-.836.671-1.551,1.487-1.775s1.688-.135,2.512-.322a11.455,11.455,0,0,0,1.532-.546,23.272,23.272,0,0,1,8.057-1.065,1.729,1.729,0,0,1-.618,2.114,2.847,2.847,0,0,1-.084,2.042,6.376,6.376,0,0,1-1.136,1.745,3.963,3.963,0,0,1-1.344,1.127,4.473,4.473,0,0,1-1.725.265c-1.827.039-3.787.04-5.3-.987-1.174-.8-1.989-2.168-3.35-2.573l.323.013" transform="translate(-182.411 -403.531)" fill="#ffbe9d"/>
          <g id="Group_382" data-name="Group 382" transform="translate(4.547 1.206)">
            <path id="Path_186" data-name="Path 186" d="M204.721,408.908a1.475,1.475,0,0,1-.35.033l-.954.03c-.806.019-1.919.033-3.148.039h-1.735a2.39,2.39,0,0,1-.767-.117,1.176,1.176,0,0,1-.554-.4.736.736,0,0,1-.145-.549.69.69,0,0,1,.192-.381.385.385,0,0,1,.327-.136.7.7,0,0,0-.281.179.635.635,0,0,0,0,.819,1.08,1.08,0,0,0,.507.346,2.326,2.326,0,0,0,.725.095l1.732-.013c1.229-.006,2.342,0,3.148.008l.954.021A1.476,1.476,0,0,1,204.721,408.908Z" transform="translate(-197.06 -407.42)" fill="#eb996e"/>
          </g>
          <g id="Group_383" data-name="Group 383" transform="translate(0 3.533)">
            <path id="Path_187" data-name="Path 187" d="M193.666,415.617a2.334,2.334,0,0,1-.439.086c-.284.044-.7.1-1.21.152a11.741,11.741,0,0,1-1.813.043,13.344,13.344,0,0,1-2.189-.368,17.047,17.047,0,0,0-3.961-.486c-.512,0-.927.018-1.213.034a2.7,2.7,0,0,1-.447.013,2.14,2.14,0,0,1,.441-.076c.286-.035.7-.073,1.217-.085a15.428,15.428,0,0,1,4,.443,14.211,14.211,0,0,0,2.164.377,12.939,12.939,0,0,0,1.794-.009c.511-.034.925-.076,1.211-.1A2.424,2.424,0,0,1,193.666,415.617Z" transform="translate(-182.395 -414.925)" fill="#eb996e"/>
          </g>
          <g id="Group_384" data-name="Group 384" transform="translate(1.213 4.398)">
            <path id="Path_188" data-name="Path 188" d="M194.847,419.18a1.432,1.432,0,0,1-.342.064c-.221.029-.542.069-.941.1a11.317,11.317,0,0,1-3.126-.1,13.779,13.779,0,0,1-2.906-1.147,7.4,7.4,0,0,0-1.225-.376,1.078,1.078,0,0,1,.349.018,4.452,4.452,0,0,1,.918.252,16.219,16.219,0,0,0,2.9,1.1,12.8,12.8,0,0,0,3.087.145l.943-.051A1.456,1.456,0,0,1,194.847,419.18Z" transform="translate(-186.307 -417.715)" fill="#eb996e"/>
          </g>
        </g>
        <g id="Group_386" data-name="Group 386" transform="translate(43.229 65.253)" opacity="0.2">
          <path id="Path_189" data-name="Path 189" d="M200.547,382.25a10.457,10.457,0,0,1,.906-3.278,5.059,5.059,0,0,1,2.342-2.4,3.366,3.366,0,0,1,3.259.2,1.693,1.693,0,0,1,.65.776.951.951,0,0,1-.156.964c-.343.363-.922.306-1.421.284a5.981,5.981,0,0,0-5.529,3.331" transform="translate(-200.547 -376.252)"/>
        </g>
        <g id="Group_387" data-name="Group 387" transform="translate(13.055 55.975)" opacity="0.2">
          <path id="Path_190" data-name="Path 190" d="M106.486,360.663c1.232-2.222.8-5.01-.15-7.368s-2.358-4.528-3.08-6.964a43,43,0,0,0,2.124,14.563" transform="translate(-103.24 -346.331)"/>
        </g>
        <path id="Path_191" data-name="Path 191" d="M113.122,280.4s1.5,3.545,6.929,3.319,5.6-4.435,5.6-4.435l3.63,3.859-3.448,7.107L121.2,293.7l-6.311-2.593-5.2-4.034Z" transform="translate(-94.637 -244.097)" fill="#5755d9"/>
        <g id="Group_388" data-name="Group 388" transform="translate(2.403 51.444)" opacity="0.5">
          <path id="Path_192" data-name="Path 192" d="M72.265,331.726A7.377,7.377,0,0,1,70.68,333.2a7.382,7.382,0,0,1-1.787,1.227,7.365,7.365,0,0,1,1.585-1.479A7.379,7.379,0,0,1,72.265,331.726Z" transform="translate(-68.889 -331.72)" fill="#fafafa"/>
        </g>
        <g id="Group_389" data-name="Group 389" transform="translate(5.031 45.603)">
          <path id="Path_193" data-name="Path 193" d="M80.653,314.907a5.913,5.913,0,0,1-3.285-2.017A11.663,11.663,0,0,1,79.01,313.9,11.684,11.684,0,0,1,80.653,314.907Z" transform="translate(-77.363 -312.884)" fill="#fafafa"/>
        </g>
        <g id="Group_390" data-name="Group 390" transform="translate(10.128 48.039)">
          <path id="Path_194" data-name="Path 194" d="M96.653,320.741a18.617,18.617,0,0,1-1.392,2.318,18.583,18.583,0,0,1-1.453,2.28,12.876,12.876,0,0,1,2.845-4.6Z" transform="translate(-93.799 -320.739)" fill="#fafafa"/>
        </g>
        <g id="Group_391" data-name="Group 391" transform="translate(6.751 54.966)">
          <path id="Path_195" data-name="Path 195" d="M85.157,346.928a7.6,7.6,0,0,1-2.235-3.85,16.522,16.522,0,0,1,1.109,1.93A16.5,16.5,0,0,1,85.157,346.928Z" transform="translate(-82.908 -343.077)" fill="#fafafa"/>
        </g>
        <g id="Group_392" data-name="Group 392" transform="translate(4.304 60.462)">
          <path id="Path_196" data-name="Path 196" d="M75.553,364.372a10.113,10.113,0,0,1-.486-3.569,10.112,10.112,0,0,1,.486,3.569Z" transform="translate(-75.019 -360.803)" fill="#fafafa"/>
        </g>
        <g id="Group_393" data-name="Group 393" transform="translate(8.747 61.9)" opacity="0.5">
          <path id="Path_197" data-name="Path 197" d="M89.358,368.99a13.11,13.11,0,0,1,2.059-3.55,13.118,13.118,0,0,1-2.059,3.55Z" transform="translate(-89.348 -365.438)" fill="#fafafa"/>
        </g>
        <g id="Group_394" data-name="Group 394" transform="translate(1.787 67.34)">
          <path id="Path_198" data-name="Path 198" d="M69.319,386.493a8.5,8.5,0,0,1-2.408-3.509,10.7,10.7,0,0,1,1.247,1.725A10.723,10.723,0,0,1,69.319,386.493Z" transform="translate(-66.902 -382.983)" fill="#fafafa"/>
        </g>
        <g id="Group_395" data-name="Group 395" transform="translate(6.977 69.956)">
          <path id="Path_199" data-name="Path 199" d="M87.052,391.422a9.236,9.236,0,0,1-1.59,1.834,9.2,9.2,0,0,1-1.819,1.607,18.223,18.223,0,0,1,3.409-3.44Z" transform="translate(-83.639 -391.419)" fill="#fafafa"/>
        </g>
        <g id="Group_396" data-name="Group 396" transform="translate(4.635 77.922)" opacity="0.5">
          <path id="Path_200" data-name="Path 200" d="M78.325,420.289a6.141,6.141,0,0,1-2.227-3.178,11.3,11.3,0,0,1,1.12,1.585A11.247,11.247,0,0,1,78.325,420.289Z" transform="translate(-76.086 -417.109)" fill="#fafafa"/>
        </g>
        <g id="Group_397" data-name="Group 397" transform="translate(11.289 78.837)">
          <path id="Path_201" data-name="Path 201" d="M101.112,420.068a13.11,13.11,0,0,1-3.565,2.033,13.122,13.122,0,0,1,3.565-2.033Z" transform="translate(-97.545 -420.059)" fill="#fafafa"/>
        </g>
        <g id="Group_398" data-name="Group 398" transform="translate(15.634 73.098)">
          <path id="Path_202" data-name="Path 202" d="M113.89,404.733a5.866,5.866,0,0,1-2.322-3.179,13.6,13.6,0,0,1,1.147,1.6A13.646,13.646,0,0,1,113.89,404.733Z" transform="translate(-111.556 -401.552)" fill="#fafafa"/>
        </g>
        <g id="Group_399" data-name="Group 399" transform="translate(19.59 58.416)">
          <path id="Path_203" data-name="Path 203" d="M128.178,354.209a18.092,18.092,0,0,1-3.861,2.891,18.082,18.082,0,0,1,3.861-2.891Z" transform="translate(-124.315 -354.203)" fill="#fafafa"/>
        </g>
        <g id="Group_400" data-name="Group 400" transform="translate(17.613 54.286)">
          <path id="Path_204" data-name="Path 204" d="M118,344.649a11.131,11.131,0,0,1,.386-3.762,11.153,11.153,0,0,1-.386,3.762Z" transform="translate(-117.939 -340.887)" fill="#fafafa"/>
        </g>
        <g id="Group_401" data-name="Group 401" transform="translate(19.204 47.542)" opacity="0.5">
          <path id="Path_205" data-name="Path 205" d="M126.869,322.379a12.184,12.184,0,0,1-3.8-3.238,13.847,13.847,0,0,1,1.94,1.57A13.866,13.866,0,0,1,126.869,322.379Z" transform="translate(-123.069 -319.137)" fill="#fafafa"/>
        </g>
        <g id="Group_402" data-name="Group 402" transform="translate(15.719 41.721)">
          <path id="Path_206" data-name="Path 206" d="M115.112,300.368a19.919,19.919,0,0,1-3.276,3.862,19.948,19.948,0,0,1,3.276-3.862Z" transform="translate(-111.831 -300.365)" fill="#fafafa"/>
        </g>
        <g id="Group_403" data-name="Group 403" transform="translate(11.115 39.586)" opacity="0.5">
          <path id="Path_207" data-name="Path 207" d="M100.281,294.648a11.051,11.051,0,0,1-1.642-.578,11,11,0,0,1-1.656-.54,4.584,4.584,0,0,1,3.3,1.118Z" transform="translate(-96.983 -293.482)" fill="#fafafa"/>
        </g>
        <g id="Group_404" data-name="Group 404" transform="translate(26.046 41.65)">
          <path id="Path_208" data-name="Path 208" d="M145.158,303.415a9.131,9.131,0,0,1,.964-3.28,9.126,9.126,0,0,1-.964,3.28Z" transform="translate(-145.133 -300.135)" fill="#fafafa"/>
        </g>
        <g id="Group_405" data-name="Group 405" transform="translate(28.764 48.787)">
          <path id="Path_209" data-name="Path 209" d="M153.991,326.433a8.445,8.445,0,0,1,.189-3.28,8.443,8.443,0,0,1-.189,3.28Z" transform="translate(-153.898 -323.153)" fill="#fafafa"/>
        </g>
        <g id="Group_406" data-name="Group 406" transform="translate(30.604 55.141)">
          <path id="Path_210" data-name="Path 210" d="M162.666,345.925a10.287,10.287,0,0,1-2.83-2.275,10.289,10.289,0,0,1,2.83,2.275Z" transform="translate(-159.833 -343.643)" fill="#fafafa"/>
        </g>
        <g id="Group_407" data-name="Group 407" transform="translate(35.395 49.939)">
          <path id="Path_211" data-name="Path 211" d="M178.207,326.872a11.806,11.806,0,0,1-2.92,2.576,11.822,11.822,0,0,1,2.92-2.576Z" transform="translate(-175.283 -326.867)" fill="#fafafa"/>
        </g>
        <g id="Group_408" data-name="Group 408" transform="translate(33.111 43.955)" opacity="0.5">
          <path id="Path_212" data-name="Path 212" d="M170.88,310.029a7.487,7.487,0,0,1-2.96-2.454,25.7,25.7,0,0,1,2.96,2.454Z" transform="translate(-167.915 -307.57)" fill="#fafafa"/>
        </g>
        <g id="Group_409" data-name="Group 409" transform="translate(39.373 40.117)">
          <path id="Path_213" data-name="Path 213" d="M190.452,295.2a4.548,4.548,0,0,1-2.338,2.2c-.05-.078.513-.52,1.148-1.121S190.378,295.14,190.452,295.2Z" transform="translate(-188.111 -295.191)" fill="#fafafa"/>
        </g>
        <g id="Group_410" data-name="Group 410" transform="translate(33.595 38.442)" opacity="0.5">
          <path id="Path_214" data-name="Path 214" d="M173.719,290.88a9.374,9.374,0,0,1-4.241-1.072,37.426,37.426,0,0,1,4.241,1.072Z" transform="translate(-169.478 -289.791)" fill="#fafafa"/>
        </g>
        <g id="Group_411" data-name="Group 411" transform="translate(45.02 44.354)" opacity="0.5">
          <path id="Path_215" data-name="Path 215" d="M206.339,314.055a14.673,14.673,0,0,1,1.588-5.2,53.458,53.458,0,0,1-1.588,5.2Z" transform="translate(-206.32 -308.857)" fill="#fafafa"/>
        </g>
        <g id="Group_412" data-name="Group 412" transform="translate(43.445 53.014)">
          <path id="Path_216" data-name="Path 216" d="M204.43,340.16a16.754,16.754,0,0,1-3.185-3.374,16.752,16.752,0,0,1,3.185,3.374Z" transform="translate(-201.241 -336.782)" fill="#fafafa"/>
        </g>
        <g id="Group_413" data-name="Group 413" transform="translate(48.978 55.733)" opacity="0.5">
          <path id="Path_217" data-name="Path 217" d="M219.214,350.086a16.007,16.007,0,0,1,.077-4.534,16.006,16.006,0,0,1-.077,4.534Z" transform="translate(-219.086 -345.552)" fill="#fafafa"/>
        </g>
        <g id="Group_414" data-name="Group 414" transform="translate(44.384 62.583)">
          <path id="Path_218" data-name="Path 218" d="M206.483,371.706a9.63,9.63,0,0,1-2.2-4.064,64.162,64.162,0,0,1,2.2,4.064Z" transform="translate(-204.269 -367.641)" fill="#fafafa"/>
        </g>
        <g id="Group_415" data-name="Group 415" transform="translate(50.849 67.806)">
          <path id="Path_219" data-name="Path 219" d="M227.274,384.493c.062.064-.368.585-.961,1.164s-1.124,1-1.186.933.368-.585.961-1.164S227.211,384.429,227.274,384.493Z" transform="translate(-225.121 -384.486)" fill="#fafafa"/>
        </g>
        <g id="Group_416" data-name="Group 416" transform="translate(37.396 56.812)" opacity="0.5">
          <path id="Path_220" data-name="Path 220" d="M181.749,352.759a6.322,6.322,0,0,1,2.57-3.724c.064.071-.663.784-1.364,1.808S181.838,352.793,181.749,352.759Z" transform="translate(-181.736 -349.03)" fill="#fafafa"/>
        </g>
        <g id="Group_417" data-name="Group 417" transform="translate(19.303 65.005)">
          <path id="Path_221" data-name="Path 221" d="M123.411,379.5a13.5,13.5,0,0,1,1-4.044,13.5,13.5,0,0,1-1,4.044Z" transform="translate(-123.387 -375.451)" fill="#fafafa"/>
        </g>
        <g id="Group_418" data-name="Group 418" transform="translate(23.669 67.665)">
          <path id="Path_222" data-name="Path 222" d="M140.742,386.172a11.9,11.9,0,0,1-3.273-2.133,11.892,11.892,0,0,1,3.273,2.133Z" transform="translate(-137.467 -384.03)" fill="#fafafa"/>
        </g>
        <g id="Group_419" data-name="Group 419" transform="translate(25.196 62.284)">
          <path id="Path_223" data-name="Path 223" d="M143.757,368.705c-.074.05-.437-.363-.811-.922s-.616-1.052-.542-1.1.437.363.811.923S143.831,368.656,143.757,368.705Z" transform="translate(-142.391 -366.677)" fill="#fafafa"/>
        </g>
        <g id="Group_420" data-name="Group 420" transform="translate(28.273 65.549)">
          <path id="Path_224" data-name="Path 224" d="M153.962,377.222c.051.073-.275.39-.728.709s-.863.518-.914.445.275-.39.729-.709S153.911,377.149,153.962,377.222Z" transform="translate(-152.314 -377.207)" fill="#fafafa"/>
        </g>
        <g id="Group_421" data-name="Group 421" transform="translate(21.124 84.674)" opacity="0.5">
          <path id="Path_225" data-name="Path 225" d="M129.287,442.065a23.637,23.637,0,0,1,.474-3.184,4.966,4.966,0,0,1-.474,3.184Z" transform="translate(-129.259 -438.881)" fill="#fafafa"/>
        </g>
        <g id="Group_422" data-name="Group 422" transform="translate(26.521 81.212)" opacity="0.5">
          <path id="Path_226" data-name="Path 226" d="M149.022,431.847a17.559,17.559,0,0,1-2.349-4.129,17.529,17.529,0,0,1,2.349,4.129Z" transform="translate(-146.665 -427.717)" fill="#fafafa"/>
        </g>
        <g id="Group_423" data-name="Group 423" transform="translate(33.344 81.882)" opacity="0.5">
          <path id="Path_227" data-name="Path 227" d="M172.4,429.881a29.189,29.189,0,0,1-3.727,4.873,29.2,29.2,0,0,1,3.727-4.873Z" transform="translate(-168.669 -429.879)" fill="#fafafa"/>
        </g>
        <g id="Group_424" data-name="Group 424" transform="translate(34.754 88.432)" opacity="0.5">
          <path id="Path_228" data-name="Path 228" d="M177.847,451.036a17.042,17.042,0,0,1-4.631.67,17.045,17.045,0,0,1,4.631-.67Z" transform="translate(-173.216 -451)" fill="#fafafa"/>
        </g>
        <g id="Group_425" data-name="Group 425" transform="translate(39.699 82.165)">
          <path id="Path_229" data-name="Path 229" d="M189.2,433.775a27.27,27.27,0,0,1,.13-2.986,4.1,4.1,0,0,1-.13,2.986Z" transform="translate(-189.164 -430.789)" fill="#fafafa"/>
        </g>
        <g id="Group_426" data-name="Group 426" transform="translate(25.581 86.791)">
          <path id="Path_230" data-name="Path 230" d="M146.726,447.933a5.444,5.444,0,0,1-3.087-2.219,13.029,13.029,0,0,1,1.532,1.125A13.024,13.024,0,0,1,146.726,447.933Z" transform="translate(-143.634 -445.71)" fill="#fafafa"/>
        </g>
        <g id="Group_427" data-name="Group 427" transform="translate(15.492 85.439)">
          <path id="Path_231" data-name="Path 231" d="M111.128,444.434a7.916,7.916,0,0,1,.776-3.086,7.92,7.92,0,0,1-.776,3.086Z" transform="translate(-111.098 -441.347)" fill="#fafafa"/>
        </g>
        <g id="Group_428" data-name="Group 428" transform="translate(14.093 10.089)">
          <path id="Path_232" data-name="Path 232" d="M106.587,198.36c.02-.025.372.278,1.021.634a7.525,7.525,0,0,0,1.188.518,7.573,7.573,0,0,0,3.132.361,7.5,7.5,0,0,0,1.275-.235c.713-.2,1.125-.415,1.139-.385a1.261,1.261,0,0,1-.282.164,2.806,2.806,0,0,1-.348.158,4.608,4.608,0,0,1-.477.173,6.763,6.763,0,0,1-1.292.273,7.2,7.2,0,0,1-3.2-.368,6.8,6.8,0,0,1-1.2-.56,4.616,4.616,0,0,1-.425-.277,2.741,2.741,0,0,1-.3-.233A1.269,1.269,0,0,1,106.587,198.36Z" transform="translate(-106.587 -198.358)" fill="#455a64"/>
        </g>
        <g id="Group_429" data-name="Group 429" transform="translate(14.269 11.261)">
          <path id="Path_233" data-name="Path 233" d="M114.99,204.533a1.461,1.461,0,0,1-.338.1c-.22.056-.541.129-.942.2a8.6,8.6,0,0,1-3.176.019,4.944,4.944,0,0,1-2.745-1.565,3.38,3.38,0,0,1-.52-.818,1.2,1.2,0,0,1-.113-.336,5.536,5.536,0,0,0,.719,1.078,5.065,5.065,0,0,0,2.692,1.482,9.3,9.3,0,0,0,3.126.026c.4-.055.723-.11.947-.147A1.531,1.531,0,0,1,114.99,204.533Z" transform="translate(-107.154 -202.136)" fill="#455a64"/>
        </g>
        <g id="Group_430" data-name="Group 430" transform="translate(10.628 14.201)">
          <path id="Path_234" data-name="Path 234" d="M95.847,230.052s-.016-.013-.041-.043a1.571,1.571,0,0,1-.105-.138,1.793,1.793,0,0,1-.247-.621,2.845,2.845,0,0,1,.682-2.3,5.845,5.845,0,0,1,1.3-1.094c.508-.336,1.08-.644,1.64-1.021a5,5,0,0,0,1.494-1.459,2.644,2.644,0,0,0,.371-1.025,3.2,3.2,0,0,0-.06-1.128,14.01,14.01,0,0,0-.785-2.139,5.924,5.924,0,0,1-.524-2.087,5.567,5.567,0,0,1,1.064-3.437,5.211,5.211,0,0,1,1.829-1.612l.347-.166.266-.093a1.2,1.2,0,0,1,.222-.066,1.29,1.29,0,0,1-.211.1l-.258.107-.337.178a5.325,5.325,0,0,0-1.766,1.623,5.5,5.5,0,0,0-1.008,3.365,5.832,5.832,0,0,0,.522,2.035,13.811,13.811,0,0,1,.8,2.164,3.341,3.341,0,0,1,.061,1.185,2.8,2.8,0,0,1-.4,1.085,5.11,5.11,0,0,1-1.546,1.5c-.572.381-1.145.683-1.651,1.011a5.8,5.8,0,0,0-1.283,1.056,2.811,2.811,0,0,0-.706,2.218A2.141,2.141,0,0,0,95.847,230.052Z" transform="translate(-95.412 -211.617)" fill="#455a64"/>
        </g>
        <g id="Group_431" data-name="Group 431" transform="translate(17.128 14.969)">
          <path id="Path_235" data-name="Path 235" d="M118.569,231.874a.973.973,0,0,1-.18-.1,1.45,1.45,0,0,1-.4-.435,2.079,2.079,0,0,1-.279-.894,3.381,3.381,0,0,1,.135-1.233,15.961,15.961,0,0,1,1.584-2.779,3.476,3.476,0,0,0,.466-1.767,4.738,4.738,0,0,0-.5-1.914,35.125,35.125,0,0,0-2.12-3.276,6.752,6.752,0,0,1-.732-1.559,3.768,3.768,0,0,1-.152-1.495,2.96,2.96,0,0,1,.9-1.939,2.1,2.1,0,0,1,.5-.319.961.961,0,0,1,.193-.069,3.18,3.18,0,0,0-.648.434,2.949,2.949,0,0,0-.832,1.9,3.689,3.689,0,0,0,.166,1.445,6.734,6.734,0,0,0,.73,1.52c.317.507.693,1.013,1.075,1.546a10.983,10.983,0,0,1,1.065,1.739,4.866,4.866,0,0,1,.51,1.981,3.609,3.609,0,0,1-.494,1.84,16.849,16.849,0,0,0-1.605,2.741,3.348,3.348,0,0,0-.154,1.192,2.066,2.066,0,0,0,.243.869A1.832,1.832,0,0,0,118.569,231.874Z" transform="translate(-116.376 -214.094)" fill="#455a64"/>
        </g>
        <g id="Group_432" data-name="Group 432" transform="translate(22.85 1.785)">
          <path id="Path_236" data-name="Path 236" d="M143.537,179.263a.374.374,0,0,1-.117-.049,2.334,2.334,0,0,1-.307-.2,3.738,3.738,0,0,1-.892-.994,11.093,11.093,0,0,1-.859-1.781c-.143-.341-.3-.7-.482-1.049a6.5,6.5,0,0,0-.684-1.023,7.015,7.015,0,0,0-3.584-2.31,9.642,9.642,0,0,0-1.783-.256,2.584,2.584,0,0,1,.488-.028,6.441,6.441,0,0,1,1.323.172,6.883,6.883,0,0,1,3.681,2.319,6.467,6.467,0,0,1,.7,1.051c.19.361.341.723.48,1.066a11.94,11.94,0,0,0,.818,1.777,4.036,4.036,0,0,0,.834,1.006C143.39,179.168,143.544,179.25,143.537,179.263Z" transform="translate(-134.828 -171.578)" fill="#455a64"/>
        </g>
        <g id="Group_433" data-name="Group 433" transform="translate(22.962 1.444)">
          <path id="Path_237" data-name="Path 237" d="M148.111,178.478a.649.649,0,0,1-.167-.017,2.554,2.554,0,0,1-.466-.121,4.031,4.031,0,0,1-1.478-.961,8.92,8.92,0,0,1-1.534-2.119,16.285,16.285,0,0,0-1.686-2.685,5.3,5.3,0,0,0-2.631-1.642,10.278,10.278,0,0,0-2.56-.341c-.74-.016-1.34.015-1.754.031l-.478.018a.666.666,0,0,1-.167,0,.657.657,0,0,1,.165-.029c.109-.013.269-.031.476-.048.414-.036,1.014-.084,1.759-.082a9.952,9.952,0,0,1,2.6.313,5.38,5.38,0,0,1,2.713,1.679,15.737,15.737,0,0,1,1.694,2.719,9.13,9.13,0,0,0,1.484,2.111,4.177,4.177,0,0,0,1.42.983C147.884,178.432,148.114,178.46,148.111,178.478Z" transform="translate(-135.189 -170.477)" fill="#455a64"/>
        </g>
        <g id="Group_434" data-name="Group 434" transform="translate(38.088 14.708)">
          <path id="Path_238" data-name="Path 238" d="M189.086,228.115c-.018-.007.079-.22.182-.626a5.873,5.873,0,0,0-1.359-5.512c-.359-.4-.77-.778-1.185-1.175a10.773,10.773,0,0,1-1.149-1.234,7.646,7.646,0,0,1-.827-1.339,7.857,7.857,0,0,1-.733-2.549,7.244,7.244,0,0,1,.018-1.788,4.479,4.479,0,0,1,.085-.478.685.685,0,0,1,.045-.163c.017,0-.031.232-.068.649a7.934,7.934,0,0,0,.033,1.767,7.99,7.99,0,0,0,.753,2.5,7.658,7.658,0,0,0,.818,1.307,10.867,10.867,0,0,0,1.136,1.214c.414.4.827.778,1.191,1.186a5.99,5.99,0,0,1,.9,1.292,5.9,5.9,0,0,1,.641,2.571,5.579,5.579,0,0,1-.24,1.772,3.728,3.728,0,0,1-.168.457A.666.666,0,0,1,189.086,228.115Z" transform="translate(-183.968 -213.252)" fill="#455a64"/>
        </g>
        <g id="Group_435" data-name="Group 435" transform="translate(9.233 6.372)">
          <path id="Path_239" data-name="Path 239" d="M90.917,189.2a.919.919,0,0,1,.039-.3,2.979,2.979,0,0,1,.3-.78,3.314,3.314,0,0,1,4.818-1.152,2.975,2.975,0,0,1,.625.558.927.927,0,0,1,.173.253,5.589,5.589,0,0,0-.859-.715,3.3,3.3,0,0,0-4.657,1.114A5.544,5.544,0,0,0,90.917,189.2Z" transform="translate(-90.913 -186.372)" fill="#455a64"/>
        </g>
        <g id="Group_436" data-name="Group 436" transform="translate(12.234 7.756)">
          <path id="Path_240" data-name="Path 240" d="M100.6,193.582a2.54,2.54,0,0,1,.087-.7,3.1,3.1,0,0,1,.733-1.554,1.643,1.643,0,0,1,1.644-.416.965.965,0,0,1,.439.3c.078.1.1.166.095.17a1.448,1.448,0,0,0-.569-.362,1.594,1.594,0,0,0-1.493.42,3.347,3.347,0,0,0-.737,1.469A3.948,3.948,0,0,1,100.6,193.582Z" transform="translate(-100.593 -190.834)" fill="#455a64"/>
        </g>
        <g id="Group_437" data-name="Group 437" transform="translate(14.917 5.962)">
          <path id="Path_241" data-name="Path 241" d="M110.507,185.048a8.436,8.436,0,0,0-1.235,3.517,4.878,4.878,0,0,1,1.235-3.517Z" transform="translate(-109.245 -185.047)" fill="#5755d9"/>
        </g>
      </g>
    </g>
    <g id="Speech_Bubble" data-name="Speech Bubble" transform="translate(112.595 160.256)">
      <g id="Group_449" data-name="Group 449">
        <g id="Group_445" data-name="Group 445" transform="translate(6.488 10.312)">
          <g id="Group_440" data-name="Group 440" transform="translate(7.844 0)">
            <g id="Group_439" data-name="Group 439">
              <path id="Path_242" data-name="Path 242" d="M273.3,207.28a.965.965,0,1,0,.965-.965A.965.965,0,0,0,273.3,207.28Z" transform="translate(-273.298 -206.315)" fill="#455a64"/>
            </g>
          </g>
          <g id="Group_442" data-name="Group 442" transform="translate(3.982 0)">
            <g id="Group_441" data-name="Group 441">
              <circle id="Ellipse_3" data-name="Ellipse 3" cx="0.965" cy="0.965" r="0.965" fill="#455a64"/>
            </g>
          </g>
          <g id="Group_444" data-name="Group 444">
            <g id="Group_443" data-name="Group 443">
              <path id="Path_243" data-name="Path 243" d="M248.132,206.8a.965.965,0,1,0,1.318-.353A.965.965,0,0,0,248.132,206.8Z" transform="translate(-248.002 -206.315)" fill="#455a64"/>
            </g>
          </g>
        </g>
        <g id="Group_448" data-name="Group 448">
          <g id="Group_447" data-name="Group 447">
            <g id="Group_446" data-name="Group 446">
              <path id="Path_244" data-name="Path 244" d="M238.453,173.066a1.082,1.082,0,0,0-.2,0l-.574.016c-.126.006-.268.006-.423.019l-.506.071-.59.085-.66.163a10.689,10.689,0,0,0-3.2,1.394,11.283,11.283,0,0,0-5.182,8.479,11.685,11.685,0,0,0-.031,1.546c.018.261.013.527.051.791l.12.8a11.328,11.328,0,0,0,1.074,3.146A12.118,12.118,0,0,0,230.4,192.4a11.882,11.882,0,0,0,2.96,2.127,10.755,10.755,0,0,0,3.609,1.107,7.152,7.152,0,0,0,.962.082,8.621,8.621,0,0,0,.973.018,11.558,11.558,0,0,0,1.949-.246,11.39,11.39,0,0,0,3.879-1.633l-.118.012,3.952,1.586.234.094-.067-.243-1.162-4.224-.02.1a11.337,11.337,0,0,0,2.109-4.827,10.256,10.256,0,0,0,.153-2.473,7.921,7.921,0,0,0-.112-1.188l-.09-.578c-.035-.19-.093-.374-.138-.56a11.3,11.3,0,0,0-4.409-6.427,10.806,10.806,0,0,0-2.624-1.384l-.591-.211-.561-.142-.513-.127c-.165-.032-.324-.048-.473-.071-.3-.038-.561-.09-.791-.1l-.581-.02-.355-.008a.528.528,0,0,0-.12,0,.55.55,0,0,0,.12.016l.353.028.577.039c.228.018.488.075.784.119a11.238,11.238,0,0,1,8.985,8.335c.043.182.1.363.133.55s.056.377.085.568a7.766,7.766,0,0,1,.1,1.166,10.08,10.08,0,0,1-.16,2.425,11.134,11.134,0,0,1-2.08,4.722l-.036.047.016.057,1.153,4.227.167-.149-3.95-1.59-.062-.025-.056.037a11.156,11.156,0,0,1-3.793,1.595,11.325,11.325,0,0,1-1.9.241,8.459,8.459,0,0,1-.951-.017,6.985,6.985,0,0,1-.941-.079,10.534,10.534,0,0,1-3.529-1.079,11.663,11.663,0,0,1-2.9-2.075,11.914,11.914,0,0,1-2.018-2.763,11.152,11.152,0,0,1-1.062-3.078l-.12-.78c-.039-.258-.034-.519-.053-.775a10.992,10.992,0,0,1,1.839-6.7,11.4,11.4,0,0,1,3.233-3.2,10.752,10.752,0,0,1,3.145-1.418l.651-.173.584-.1.5-.083c.154-.017.294-.021.42-.031l.57-.042A1.093,1.093,0,0,0,238.453,173.066Z" transform="translate(-227.078 -173.062)" fill="#455a64"/>
            </g>
          </g>
        </g>
      </g>
    </g>
  </g>
</svg>
