<svg xmlns="http://www.w3.org/2000/svg" width="112.018" height="87.68" viewBox="0 0 112.018 87.68">
  <g id="Group_160" data-name="Group 160" transform="translate(-143.481 -27.33)">
    <g id="Group_122" data-name="Group 122" transform="translate(143.481 49.528)">
      <g id="Group_115" data-name="Group 115" transform="translate(5.764)">
        <g id="Group_114" data-name="Group 114">
          <path id="Path_66" data-name="Path 66" d="M239.047,40.56V99.735a1.538,1.538,0,0,1-.086.526,1.319,1.319,0,0,1-1.232,1.052H147.812a1.317,1.317,0,0,1-1.221-1.052,1.586,1.586,0,0,1-.084-.526V40.56a1.468,1.468,0,0,1,1.3-1.577h89.917A1.468,1.468,0,0,1,239.047,40.56Z" transform="translate(-146.507 -38.983)" fill="#5755d9"/>
        </g>
      </g>
      <g id="Group_117" data-name="Group 117" transform="translate(0 61.278)">
        <g id="Group_116" data-name="Group 116">
          <path id="Path_67" data-name="Path 67" d="M247.548,72.608a2.553,2.553,0,0,1-2.271,2.747H145.754a2.544,2.544,0,0,1-2.273-2.747,3.08,3.08,0,0,1,.35-1.457H247.2A3.08,3.08,0,0,1,247.548,72.608Z" transform="translate(-143.481 -71.151)" fill="#2f2f5b"/>
        </g>
      </g>
      <g id="Group_119" data-name="Group 119" transform="translate(46.02 61.282)">
        <g id="Group_118" data-name="Group 118">
          <path id="Path_68" data-name="Path 68" d="M167.639,71.153a3.057,3.057,0,0,0,2.745,2.1h6.536a3.052,3.052,0,0,0,2.745-2.1Z" transform="translate(-167.639 -71.153)" fill="#cfcfff"/>
        </g>
      </g>
      <g id="Group_121" data-name="Group 121" transform="translate(8.816 2.439)">
        <g id="Group_120" data-name="Group 120">
          <rect id="Rectangle_10" data-name="Rectangle 10" width="86.216" height="54.627" fill="#cfcfff"/>
        </g>
      </g>
    </g>
    <g id="Group_147" data-name="Group 147" transform="translate(158.744 56.693)">
      <g id="Group_124" data-name="Group 124">
        <g id="Group_123" data-name="Group 123">
          <rect id="Rectangle_11" data-name="Rectangle 11" width="73.542" height="43.235" fill="#fff"/>
        </g>
      </g>
      <g id="Group_126" data-name="Group 126" transform="translate(58.946 32.393)">
        <g id="Group_125" data-name="Group 125">
          <path id="Path_69" data-name="Path 69" d="M196.692,75.1,192,73.846l-1.731,4.53-7.837-15.353,6.418-3.274Z" transform="translate(-182.437 -59.749)" fill="#d93d15"/>
        </g>
      </g>
      <g id="Group_128" data-name="Group 128" transform="translate(48.774 32.393)">
        <g id="Group_127" data-name="Group 127">
          <path id="Path_70" data-name="Path 70" d="M177.1,75.1l4.685-1.255,1.733,4.53,7.836-15.353-6.419-3.274Z" transform="translate(-177.097 -59.749)" fill="#d93d15"/>
        </g>
      </g>
      <g id="Group_130" data-name="Group 130" transform="translate(52.913 26.844)">
        <g id="Group_129" data-name="Group 129">
          <path id="Path_71" data-name="Path 71" d="M194.953,64.679a7.842,7.842,0,1,1-7.841-7.843A7.842,7.842,0,0,1,194.953,64.679Z" transform="translate(-179.27 -56.836)" fill="#f99a24"/>
        </g>
      </g>
      <g id="Group_132" data-name="Group 132" transform="translate(54.609 28.719)">
        <g id="Group_131" data-name="Group 131">
          <path id="Path_72" data-name="Path 72" d="M192.453,63.963a6.146,6.146,0,1,1-6.145-6.143A6.148,6.148,0,0,1,192.453,63.963Z" transform="translate(-180.16 -57.82)" fill="#d93d15"/>
        </g>
      </g>
      <g id="Group_134" data-name="Group 134" transform="translate(6.569 4.875)">
        <g id="Group_133" data-name="Group 133">
          <rect id="Rectangle_12" data-name="Rectangle 12" width="60.332" height="6.145" fill="#909090"/>
        </g>
      </g>
      <g id="Group_136" data-name="Group 136" transform="translate(6.569 34.686)">
        <g id="Group_135" data-name="Group 135">
          <rect id="Rectangle_13" data-name="Rectangle 13" width="38.352" height="3.854" fill="#a0a0a0"/>
        </g>
      </g>
      <g id="Group_138" data-name="Group 138" transform="translate(6.569 13.988)">
        <g id="Group_137" data-name="Group 137">
          <rect id="Rectangle_14" data-name="Rectangle 14" width="60.332" height="1.059" fill="#a0a0a0"/>
        </g>
      </g>
      <g id="Group_140" data-name="Group 140" transform="translate(6.569 17.803)">
        <g id="Group_139" data-name="Group 139">
          <rect id="Rectangle_15" data-name="Rectangle 15" width="60.332" height="1.059" fill="#a0a0a0"/>
        </g>
      </g>
      <g id="Group_142" data-name="Group 142" transform="translate(6.569 21.619)">
        <g id="Group_141" data-name="Group 141">
          <rect id="Rectangle_16" data-name="Rectangle 16" width="60.332" height="1.058" fill="#a0a0a0"/>
        </g>
      </g>
      <g id="Group_144" data-name="Group 144" transform="translate(6.569 25.432)">
        <g id="Group_143" data-name="Group 143">
          <rect id="Rectangle_17" data-name="Rectangle 17" width="32.426" height="1.06" fill="#a0a0a0"/>
        </g>
      </g>
      <g id="Group_146" data-name="Group 146" transform="translate(6.569 29.248)">
        <g id="Group_145" data-name="Group 145">
          <rect id="Rectangle_18" data-name="Rectangle 18" width="32.426" height="1.058" fill="#a0a0a0"/>
        </g>
      </g>
    </g>
    <g id="Group_159" data-name="Group 159" transform="translate(207.137 27.33)">
      <g id="Group_149" data-name="Group 149" transform="translate(0.254 4.889)">
        <g id="Group_148" data-name="Group 148">
          <path id="Path_73" data-name="Path 73" d="M212.088,59.6c-1,2.633-10.462,3.983-20.114.32s-15.838-10.959-14.838-13.592l5.869-15.459c4.907-3.526,11.662,3.438,17.807,5.772,6.294,2.389,15.885,1.551,17.144,7.5Z" transform="translate(-177.031 -29.897)" fill="#272744"/>
        </g>
      </g>
      <g id="Group_153" data-name="Group 153">
        <g id="Group_150" data-name="Group 150">
          <path id="Path_74" data-name="Path 74" d="M224.709,46.905l-19.44-17.626a1.686,1.686,0,0,0-1.034-.434l-25.56-1.514h-.09a1.683,1.683,0,0,0-1.524.968v.011a1.647,1.647,0,0,0,.3,1.859l4.93,5.231,13.142,13.919a1.727,1.727,0,0,0,1.225.535l14.209-.011H216.8l6.778-.011a1.683,1.683,0,0,0,1.547-1.023c.011-.023.011-.034.021-.057A1.661,1.661,0,0,0,224.709,46.905ZM204.134,30.525l19.442,17.626h-12.03l-2.4.011H196.657l-13.7-14.523-4.374-4.629Z" transform="translate(-176.897 -27.33)" fill="#3b3b72"/>
        </g>
        <g id="Group_152" data-name="Group 152" transform="translate(0.164)">
          <g id="Group_151" data-name="Group 151">
            <path id="Path_75" data-name="Path 75" d="M225.066,48.751c-.01.023-.01.034-.021.057-.846.11-1.448.177-1.547.177h-6.454L212.337,49h-2.4l-13.354.011a.842.842,0,0,1-.613-.267L182.6,34.363l-5.62-6.054V28.3a1.683,1.683,0,0,1,1.524-.968h.09l25.56,1.514a1.686,1.686,0,0,1,1.034.434l19.44,17.626A1.661,1.661,0,0,1,225.066,48.751Z" transform="translate(-176.983 -27.33)" fill="#2f2f5b"/>
          </g>
        </g>
      </g>
      <g id="Group_156" data-name="Group 156" transform="translate(23.193 10.797)">
        <g id="Group_155" data-name="Group 155">
          <g id="Group_154" data-name="Group 154">
            <path id="Path_76" data-name="Path 76" d="M204.508,67.194a.841.841,0,0,1-.842-.842V48.426L189.327,34.442a.841.841,0,1,1,1.175-1.2L205.094,47.47a.849.849,0,0,1,.253.6v18.28A.842.842,0,0,1,204.508,67.194Z" transform="translate(-189.072 -32.998)" fill="#cfcfff"/>
          </g>
        </g>
      </g>
      <g id="Group_158" data-name="Group 158" transform="translate(34.898 38.977)">
        <g id="Group_157" data-name="Group 157" transform="translate(0 0)">
          <path id="Rectangle_19" data-name="Rectangle 19" d="M1.28,0H6.035a1.28,1.28,0,0,1,1.28,1.28V9.4a1.281,1.281,0,0,1-1.281,1.281H1.278A1.278,1.278,0,0,1,0,9.4V1.28A1.28,1.28,0,0,1,1.28,0Z" transform="matrix(1, -0.011, 0.011, 1, 0, 0.079)" fill="#5755d9"/>
        </g>
      </g>
    </g>
  </g>
</svg>
