<svg xmlns="http://www.w3.org/2000/svg" width="86.768" height="97.739" viewBox="0 0 86.768 97.739">
  <g id="Group_169" data-name="Group 169" transform="translate(-28.74 -0.001)">
    <g id="Group_164" data-name="Group 164" transform="translate(67.011 54.983)">
      <path id="Path_77" data-name="Path 77" d="M403.538,330.085l-8.959-39.907h-4.072l9.162,40.721a1.87,1.87,0,0,0,.814,1.222,1.835,1.835,0,0,0,1.018.2h.407A1.788,1.788,0,0,0,403.538,330.085Z" transform="translate(-359.723 -289.771)" fill="#29294b"/>
      <path id="Path_78" data-name="Path 78" d="M238.233,288.248l-8.959,40.11a1.875,1.875,0,0,0,1.425,2.24h.407a1.525,1.525,0,0,0,1.018-.2,1.675,1.675,0,0,0,.814-1.222l9.162-41.128h-3.869Z" transform="translate(-229.236 -288.044)" fill="#29294b"/>
      <path id="Path_79" data-name="Path 79" d="M332.653,290.178l-.814,36.445a2.009,2.009,0,0,0,1.832,2.036h0a2.165,2.165,0,0,0,2.036-1.832l.815-36.649Z" transform="translate(-312.254 -289.771)" fill="#29294b"/>
    </g>
    <path id="Path_80" data-name="Path 80" d="M226.395,29.912l45.4,1.222-1.222,51.309-45.4-1.425Z" transform="translate(-158.938 -24.202)" fill="#f3f3ff"/>
    <g id="Group_165" data-name="Group 165" transform="translate(63.792 1.638)">
      <path id="Path_81" data-name="Path 81" d="M270.131,12.65a1.852,1.852,0,0,1-.814,1.629,1.852,1.852,0,0,1-1.629.814h0L222.08,13.668a1.852,1.852,0,0,1-1.629-.814,2.489,2.489,0,0,1-.611-1.832,2.476,2.476,0,0,1,2.443-2.443L267.687,10A2.811,2.811,0,0,1,270.131,12.65Z" transform="translate(-218.415 -8.578)" fill="#5755d9"/>
      <path id="Path_82" data-name="Path 82" d="M262.664,295.316a1.852,1.852,0,0,1-.814,1.629,2.312,2.312,0,0,1-1.629.611h0l-45.608-1.222a1.852,1.852,0,0,1-1.629-.815,2.6,2.6,0,0,1,1.832-4.276l45.4,1.425A2.811,2.811,0,0,1,262.664,295.316Z" transform="translate(-212.373 -237.289)" fill="#5755d9"/>
    </g>
    <g id="Group_166" data-name="Group 166" transform="translate(42.209 0.598)">
      <path id="Path_83" data-name="Path 83" d="M152.863,37.941c-.2.814-.814,1.425-1.222,1.425-.407-.2-.611-.814-.407-1.629s.814-1.425,1.222-1.425C153.067,36.312,153.27,37.126,152.863,37.941Z" transform="translate(-141.257 -29.978)" fill="#ffd15c"/>
      <path id="Path_84" data-name="Path 84" d="M108.39,37.077c.2.814.814,1.425,1.222,1.425.611-.2.611-1.018.407-1.832s-.814-1.425-1.222-1.425C108.186,35.449,108.186,36.263,108.39,37.077Z" transform="translate(-106.557 -29.114)" fill="#ffd15c"/>
      <path id="Path_85" data-name="Path 85" d="M100.73,17.81l2.24-2.036a26.455,26.455,0,0,1-.611-3.054c0-.611-1.425-4.276-.814-6.108s.407-3.258,3.461-3.461,3.665,1.018,4.683,2.036c1.018,1.222.814,4.887.814,5.5a17.217,17.217,0,0,1-1.425,5.294V17l2.24,3.869v3.869l-2.24.2L99.3,22.9Z" transform="translate(-99.305 -3.128)" fill="#ffd15c"/>
    </g>
    <path id="Path_86" data-name="Path 86" d="M126.854,74.469,124.411,70.8V69.786s-3.258,2.85-5.9-.407c0,0,1.832,4.683,8.551,5.9Z" transform="translate(-72.632 -56.135)" fill="#f7b64c"/>
    <path id="Path_87" data-name="Path 87" d="M241.173,144.762a19.852,19.852,0,0,0,2.24-1.018c.407-.2.611-.611,1.222-.815s1.425-.814,1.832-.814,1.018-.2,1.222-.2a19.213,19.213,0,0,1,1.832.611s0,.814-.611.814c-.2,0-1.832-.407-2.036-.407s.611.2.611.2,1.629.2,1.832.2h.2c.2-.2.611,0,.611.407h0c0,.2,0,.2-.2.407a.71.71,0,0,0-.407.2h-.407c-.2,0,0,.407,0,.611a.2.2,0,0,1-.2.2H248.5a1,1,0,0,1-.2.611c-.2.2-.2,0-.2,0s.2.611-.814,1.018a11.309,11.309,0,0,1-3.461.407c-.407-.2-2.24,1.018-2.24,1.018Z" transform="translate(-171.884 -114.822)" fill="#ffd15c"/>
    <path id="Path_88" data-name="Path 88" d="M100.813,499.418a1.059,1.059,0,0,0,.814-.407,2.176,2.176,0,0,0,0-1.629c-.407-1.018-.407-.611-.407-.611l-5.5.2a3.028,3.028,0,0,0,0,1.425,1.363,1.363,0,0,0,1.425.814C98.166,499.214,100,499.418,100.813,499.418Z" transform="translate(-54.124 -401.881)" fill="#344a5e"/>
    <path id="Path_89" data-name="Path 89" d="M95.09,473.142s-.2,1.425-.407,2.443a4.343,4.343,0,0,0,.2,2.443c.407.407,2.036.2,3.054.2a8.1,8.1,0,0,0,2.24,0c.611,0,.407-1.832,0-2.85a8.027,8.027,0,0,1-1.018-2.85v-1.018Z" transform="translate(-53.287 -381.51)" fill="#415a6b"/>
    <path id="Path_90" data-name="Path 90" d="M154.767,492.291l.611.407s.2.2,0,.611a2.056,2.056,0,0,0-1.018.407,13.478,13.478,0,0,1-3.054.2,3.175,3.175,0,0,1-2.036-1.222,2.981,2.981,0,0,0-1.018-.611v.407h-2.443a2.131,2.131,0,0,1,.407-2.036l.814-.814C147.234,489.644,154.767,492.291,154.767,492.291Z" transform="translate(-94.64 -396.18)" fill="#344a5e"/>
    <path id="Path_91" data-name="Path 91" d="M151.005,475.214a6.216,6.216,0,0,1,1.425,1.629c.407.814.407,1.832,1.222,2.24s1.832,1.222,1.832,1.629a6.159,6.159,0,0,0-2.036.407c-1.018.407-2.647.407-3.258-.2-.611-.407-1.018-1.222-2.036-1.425-1.018-.407-2.036,0-2.24-.407a6.1,6.1,0,0,1,.611-3.665C147.341,474.807,151.005,475.214,151.005,475.214Z" transform="translate(-94.747 -384.397)" fill="#415a6b"/>
    <path id="Path_92" data-name="Path 92" d="M173.72,104.936l1.629-1.425a21.674,21.674,0,0,1,.611,4.276c0,1.832-.407,2.647,0,3.258s1.832,2.24,1.832,3.258.2,1.222.814,1.018,2.85-.611,3.461-.814c.407-.2,4.683-1.425,4.683-1.425s-.2,4.276,2.036,4.887c0,0-6.515,2.24-7.737,2.443s-3.665,1.018-4.276,1.018a3.225,3.225,0,0,1-2.443-1.018,7.437,7.437,0,0,1-1.425-2.85C173.11,116.949,173.72,104.936,173.72,104.936Z" transform="translate(-116.648 -83.752)" fill="#29294b"/>
    <path id="Path_93" data-name="Path 93" d="M105.335,114.892s-5.09,3.054-10.588,2.443-6.108-.611-6.108-.814,2.85-19.139,3.869-26.672h1.018a4.215,4.215,0,0,0,7.737-.2h.407l2.443,16.288Z" transform="translate(-48.466 -72.533)" fill="#5755d9"/>
    <path id="Path_94" data-name="Path 94" d="M80.166,223.336c7.126,1.629,13.438,1.629,17.714-1.425,0,0,2.24,6.515,2.24,7.533s-.407.814-.407,2.443,0,12.624-.2,14.66-.611,4.683-.407,5.5a26.883,26.883,0,0,1,.814,5.9,98.527,98.527,0,0,1-1.425,10.995,5.728,5.728,0,0,0,.2,2.24s-2.036-.611-3.054.407c-1.018.814-2.647,1.018-3.258,0a48.065,48.065,0,0,1,.407-6.515c.407-2.036,0-8.755,0-10.384a46.068,46.068,0,0,0-.2-5.09c-.2-2.036-.814-6.719-1.018-7.33s-1.222-4.072-1.222-4.072a30,30,0,0,1-.814,4.683c-.611,2.24-1.629,5.7-1.832,6.312a64.725,64.725,0,0,0-.814,7.737,55.339,55.339,0,0,0,.814,6.108c.2,1.425.2,6.515.2,7.33v1.222a2.556,2.556,0,0,0-2.036-.815A4.356,4.356,0,0,0,83.22,272s-1.629-1.832-1.629-2.85-.814-2.24-1.018-4.276a122.032,122.032,0,0,1,0-12.216c.2-2.647-.407-8.959-.814-12.827C79.555,236.163,78.945,227.2,80.166,223.336Z" transform="translate(-41.011 -179.552)" fill="#29294b"/>
    <path id="Path_95" data-name="Path 95" d="M149.439,76.845a10.849,10.849,0,0,1,1.222,4.479c.2,2.24.814,11.2,1.222,14.049.407,3.054,1.629,10.384,1.629,12.42.2,2.036-.2,3.665,1.222,4.276a2.8,2.8,0,0,0,2.443,0,21.392,21.392,0,0,1-1.629-4.887,80.956,80.956,0,0,0-1.222-8.144s.814-8.144,1.425-9.977a70.173,70.173,0,0,0,.611-7.126s-4.887-2.85-5.7-3.869A4.775,4.775,0,0,0,149.439,76.845Z" transform="translate(-97.66 -62.176)" fill="#2d2d54"/>
    <g id="Group_167" data-name="Group 167" transform="translate(28.74 17.316)">
      <path id="Path_96" data-name="Path 96" d="M37.527,110.055c-.814.2-1.425,1.425-1.629,2.647s-.407,2.647-.407,2.647-3.258-3.461-4.276-4.479a14.415,14.415,0,0,1-2.443-4.072c-.2-.814.611-3.258,1.222-4.276s2.647-5.5,3.665-7.737,2.036-4.072,2.036-4.072A21.872,21.872,0,0,1,36.916,95.6a35.891,35.891,0,0,1,0,4.683,13.577,13.577,0,0,0-.611,1.425,20.486,20.486,0,0,1-2.24,3.461,3.21,3.21,0,0,0,.2.814,2.738,2.738,0,0,0,1.222,1.425c.2.2.407.611.814.814A11.553,11.553,0,0,1,37.527,110.055Z" transform="translate(-28.74 -90.713)" fill="#29294b"/>
      <path id="Path_97" data-name="Path 97" d="M270.671,104.009l-12.013,11.606a.576.576,0,0,0,.815.814l11.605-11.809C271.486,104.213,270.875,103.6,270.671,104.009Z" transform="translate(-214.648 -101.362)" fill="#344a5e"/>
    </g>
    <path id="Path_98" data-name="Path 98" d="M263.321,153.7h.2a5.487,5.487,0,0,0,1.629-1.425,4.094,4.094,0,0,0,.814-1.629,2.582,2.582,0,0,1-1.222-.2h-.407c-.2,0-.2,0-.2.2v.407c0,.2.2.2.2.407h-.407a.71.71,0,0,0-.407.2v.611h-.814a.748.748,0,0,0-.2.611A1.589,1.589,0,0,0,263.321,153.7Z" transform="translate(-189.146 -121.727)" fill="#ffd15c"/>
    <g id="Group_168" data-name="Group 168" transform="translate(34.472 0.001)">
      <path id="Path_99" data-name="Path 99" d="M107.859,8.154a14.355,14.355,0,0,0,0-3.054c-.2-1.018,1.222-2.85,2.24-2.24s2.647.611,3.258-.2,2.443.611,2.443,2.036V7.95h.2a7.137,7.137,0,0,0,.611-3.258c0-1.425-1.425-4.887-5.09-4.683s-4.683,3.258-4.887,5.09c-.2,1.018.611,2.239,1.222,3.054Z" transform="translate(-97.475 -0.001)" fill="#415a6b"/>
      <path id="Path_100" data-name="Path 100" d="M69.97,69.378a15.072,15.072,0,0,0-.611,4.887c.2,2.24.2,12.827.2,14.049s-1.425,11.606-2.036,13.234c-.611,1.425-2.036,4.887-4.276,4.887a9.749,9.749,0,0,1-4.479-1.425s2.647-16.288,2.24-19.75a27.852,27.852,0,0,0,.2-6.515c-.407-2.24-1.222-4.887-1.222-4.887a46.34,46.34,0,0,1,6.312-2.036C67.934,71.617,68.545,69.989,69.97,69.378Z" transform="translate(-58.772 -56.135)" fill="#29294b"/>
    </g>
  </g>
</svg>
