<svg xmlns="http://www.w3.org/2000/svg" width="105.852" height="130.097" viewBox="0 0 105.852 130.097">
  <g id="Group_616" data-name="Group 616" transform="translate(-360.266 -242.231)">
    <g id="Group_615" data-name="Group 615" transform="translate(360.266 242.231)">
      <g id="Group_531" data-name="Group 531" transform="translate(29.296 5.871)">
        <g id="Group_529" data-name="Group 529">
          <rect id="Rectangle_25" data-name="Rectangle 25" width="76.556" height="45.099" fill="#606060"/>
        </g>
        <g id="Group_530" data-name="Group 530">
          <rect id="Rectangle_26" data-name="Rectangle 26" width="76.556" height="45.099" fill="#2f2f5b"/>
        </g>
      </g>
      <g id="Group_534" data-name="Group 534" transform="translate(30.974 7.374)">
        <g id="Group_532" data-name="Group 532">
          <rect id="Rectangle_27" data-name="Rectangle 27" width="73.464" height="41.664" fill="#606060"/>
        </g>
        <g id="Group_533" data-name="Group 533">
          <rect id="Rectangle_28" data-name="Rectangle 28" width="73.464" height="41.664" fill="#5755d9"/>
        </g>
      </g>
      <g id="Group_614" data-name="Group 614">
        <g id="Group_536" data-name="Group 536" transform="translate(56.729 27.254)">
          <g id="Group_535" data-name="Group 535">
            <path id="Path_272" data-name="Path 272" d="M397.881,260.369l1.773-1.3a1.564,1.564,0,0,1,1.01-.295l1.812.112a1.553,1.553,0,0,1,.867.333h0a1.55,1.55,0,0,1,.42,1.916L402.4,263.83a1.548,1.548,0,0,1-2.148.646l-1.725-.977a1.618,1.618,0,0,1-.367-.292l-3.367.336C394.156,262.863,397.131,260.915,397.881,260.369Z" transform="translate(-394.701 -258.774)" fill="#eab99a"/>
          </g>
        </g>
        <g id="Group_538" data-name="Group 538" transform="translate(13.473 122.7)">
          <g id="Group_537" data-name="Group 537">
            <rect id="Rectangle_29" data-name="Rectangle 29" width="6.048" height="6.941" rx="1.176"/>
          </g>
        </g>
        <g id="Group_540" data-name="Group 540" transform="translate(24.31 122.7)">
          <g id="Group_539" data-name="Group 539">
            <rect id="Rectangle_30" data-name="Rectangle 30" width="6.048" height="6.941" rx="1.176"/>
          </g>
        </g>
        <g id="Group_542" data-name="Group 542" transform="translate(17.64 15.931)">
          <g id="Group_541" data-name="Group 541">
            <rect id="Rectangle_31" data-name="Rectangle 31" width="8.474" height="9.786" fill="#dead8e"/>
          </g>
        </g>
        <g id="Group_555" data-name="Group 555" transform="translate(14.553)">
          <g id="Group_544" data-name="Group 544" transform="translate(11.404 8.66)">
            <g id="Group_543" data-name="Group 543">
              <path id="Path_273" data-name="Path 273" d="M376.742,251.557h0a1.082,1.082,0,0,0,1.433-.735l.54-1.939a1.118,1.118,0,0,0-.679-1.326h0a1.084,1.084,0,0,0-1.435.736l-.54,1.937A1.117,1.117,0,0,0,376.742,251.557Z" transform="translate(-376.022 -247.487)" fill="#eab99a"/>
            </g>
          </g>
          <g id="Group_546" data-name="Group 546" transform="translate(1.374 3.22)">
            <g id="Group_545" data-name="Group 545">
              <path id="Path_274" data-name="Path 274" d="M381.24,247.98l.173,6.969a4.5,4.5,0,0,1-.376,1.888c-.707,1.656-.707,1.656-3.125,4.086a3.111,3.111,0,0,1-1.987.568c-.157,0-.308.008-.451,0a2.754,2.754,0,0,1-1.567-.473c-2.539-2.3-2.539-2.3-3.326-3.924a4.514,4.514,0,0,1-.471-1.867l-.175-6.969a3.685,3.685,0,0,1,3.326-3.965l4.456-.112A3.687,3.687,0,0,1,381.24,247.98Z" transform="translate(-369.934 -244.185)" fill="#eab99a"/>
            </g>
          </g>
          <g id="Group_548" data-name="Group 548" transform="translate(1.374 3.243)">
            <g id="Group_547" data-name="Group 547">
              <path id="Path_275" data-name="Path 275" d="M380.336,247.994l.173,6.967a4.468,4.468,0,0,1-.369,1.89c-.705,1.656-.705,1.656-3.125,4.084a2.612,2.612,0,0,1-3.107.079c-2.539-2.3-2.539-2.3-3.326-3.924a4.514,4.514,0,0,1-.471-1.867l-.175-6.969a3.685,3.685,0,0,1,3.326-3.965l3.553-.089A3.685,3.685,0,0,1,380.336,247.994Z" transform="translate(-369.934 -244.199)" fill="#f4caaf"/>
            </g>
          </g>
          <g id="Group_550" data-name="Group 550" transform="translate(0 8.958)">
            <g id="Group_549" data-name="Group 549">
              <path id="Path_276" data-name="Path 276" d="M371.261,251.689h0a1.083,1.083,0,0,1-1.47-.662l-.638-1.908a1.119,1.119,0,0,1,.613-1.359h0a1.08,1.08,0,0,1,1.468.662l.639,1.909A1.114,1.114,0,0,1,371.261,251.689Z" transform="translate(-369.1 -247.668)" fill="#f4caaf"/>
            </g>
          </g>
          <g id="Group_552" data-name="Group 552" transform="translate(0.768 0.001)">
            <g id="Group_551" data-name="Group 551">
              <path id="Path_277" data-name="Path 277" d="M382.524,250.268l-1.012,3.924-1.38-4.818-.73.973-1.334.314-.006.006-6.321,1.487-1.448,2.125-.726-5.222,1.755-5.386,7.192-1.438,1.472,1.331,1.99,1.789Z" transform="translate(-369.566 -242.231)" fill="#5d2c10"/>
            </g>
          </g>
          <g id="Group_554" data-name="Group 554" transform="translate(0.767)">
            <g id="Group_553" data-name="Group 553">
              <path id="Path_278" data-name="Path 278" d="M379.986,243.562l.086,3.468a3.955,3.955,0,0,1-2,3.631l-.007.007-6.321,1.486-1.448,2.125-.726-5.222,1.756-5.387,7.191-1.438Z" transform="translate(-369.566 -242.231)" fill="#6d3c1f"/>
            </g>
          </g>
        </g>
        <g id="Group_557" data-name="Group 557" transform="translate(10.433 57.708)">
          <g id="Group_556" data-name="Group 556">
            <path id="Path_279" data-name="Path 279" d="M389.119,283.247l-1.143,7.054h-20.03l-1.265-6.924a5.136,5.136,0,0,1,.148-2.432l.179-.577.937-3.1v-.008h20.03l.842,3.109.186.7A5.18,5.18,0,0,1,389.119,283.247Z" transform="translate(-366.599 -277.26)" fill="#2f2f5b"/>
          </g>
        </g>
        <g id="Group_559" data-name="Group 559" transform="translate(5.601 22.035)">
          <g id="Group_558" data-name="Group 558">
            <path id="Path_280" data-name="Path 280" d="M395.814,260.884c0,.015-.008.031-.008.048-1.75,4.211-2.407,9.478-3.507,14.036a73.279,73.279,0,0,0-2.463,15.853,1.873,1.873,0,0,1-.033.376.256.256,0,0,1-.008.082,2.959,2.959,0,0,1-2.911,2.438H372.75a2.952,2.952,0,0,1-2.9-2.43v-.008a.274.274,0,0,1-.008-.082,2.117,2.117,0,0,1-.04-.446,64.96,64.96,0,0,0-2.522-16.517c-1.175-4.494-2.527-8.913-3.539-13.341a2.875,2.875,0,0,1-.056-.367,2.953,2.953,0,0,1,2.234-3.165c.461-.092,8.7-1.754,9.176-1.754l5.2,4.595,4.2-4.595c.555,0,9.47,1.848,9.606,1.909A2.94,2.94,0,0,1,395.814,260.884Z" transform="translate(-363.666 -255.606)" fill="#e0e0e0"/>
          </g>
        </g>
        <g id="Group_564" data-name="Group 564" transform="translate(10.516 62.594)">
          <g id="Group_561" data-name="Group 561" transform="translate(11.199)">
            <g id="Group_560" data-name="Group 560">
              <path id="Path_281" data-name="Path 281" d="M384.685,281.326l-11.238-1.1.138,8.155.367,21.3L374.263,320l.505,22.118h7.854l.2-20.39.409-10.823,1.116-15.186Z" transform="translate(-373.447 -280.226)" fill="#2f2f5b"/>
            </g>
          </g>
          <g id="Group_563" data-name="Group 563">
            <g id="Group_562" data-name="Group 562">
              <path id="Path_282" data-name="Path 282" d="M366.649,281.456l.286,14.264,1.125,15.186.385,10.823.2,20.39H376.5L377.009,320l.325-10.317.3-17.3.072-4,.14-8.155-.212.024Z" transform="translate(-366.649 -280.226)" fill="#2f2f5b"/>
            </g>
          </g>
        </g>
        <g id="Group_566" data-name="Group 566" transform="translate(12.165 124.491)">
          <g id="Group_565" data-name="Group 565">
            <path id="Path_283" data-name="Path 283" d="M370.448,317.8l-2.8,4.18V323.4h7.917v-2.141l-1.348-3.465Z" transform="translate(-367.65 -317.797)" fill="#303030"/>
          </g>
        </g>
        <g id="Group_568" data-name="Group 568" transform="translate(12.165 127.293)">
          <g id="Group_567" data-name="Group 567">
            <path id="Path_284" data-name="Path 284" d="M367.65,320.875l3.2-1.377,4.719,1.377V322.3H367.65Z" transform="translate(-367.65 -319.498)" fill="#505050"/>
          </g>
        </g>
        <g id="Group_570" data-name="Group 570" transform="translate(24.136 124.487)">
          <g id="Group_569" data-name="Group 569">
            <path id="Path_285" data-name="Path 285" d="M382.837,321.978V323.4h-7.92V321.26l1.347-3.465h3.776Z" transform="translate(-374.917 -317.795)" fill="#303030"/>
          </g>
        </g>
        <g id="Group_572" data-name="Group 572" transform="translate(24.136 127.293)">
          <g id="Group_571" data-name="Group 571">
            <path id="Path_286" data-name="Path 286" d="M382.837,320.875V322.3h-7.92v-1.427l5.193-1.377Z" transform="translate(-374.917 -319.498)" fill="#505050"/>
          </g>
        </g>
        <g id="Group_574" data-name="Group 574" transform="translate(10.843 57.626)">
          <g id="Group_573" data-name="Group 573">
            <path id="Path_287" data-name="Path 287" d="M388.657,280.4H366.848l.937-3.1v-.008a.274.274,0,0,1-.008-.082h19.965a.256.256,0,0,1-.008.082h.081Z" transform="translate(-366.848 -277.21)" fill="#16163a"/>
          </g>
        </g>
        <g id="Group_576" data-name="Group 576" transform="translate(8.33 35.537)">
          <g id="Group_575" data-name="Group 575">
            <path id="Path_288" data-name="Path 288" d="M365.322,263.8l1.018,16.072,1.168,3.247,1.265,2.86,20.03-.008.841-1.884,1.173-3.364.806-15.4Z" transform="translate(-365.322 -263.802)" fill="#e0e0e0"/>
          </g>
        </g>
        <g id="Group_578" data-name="Group 578" transform="translate(15.732 57.183)">
          <g id="Group_577" data-name="Group 577">
            <path id="Rectangle_32" data-name="Rectangle 32" d="M.218,0H.551A.217.217,0,0,1,.768.217V3.862a.217.217,0,0,1-.217.217H.217A.217.217,0,0,1,0,3.862V.218A.218.218,0,0,1,.218,0Z" fill="#5755d9"/>
          </g>
        </g>
        <g id="Group_580" data-name="Group 580" transform="translate(29.301 24.345)">
          <g id="Group_579" data-name="Group 579">
            <path id="Path_289" data-name="Path 289" d="M378.253,259.543l16.46,18.736a1.149,1.149,0,0,0,.878.5l3.1.2a1.155,1.155,0,0,0,1.209-1.364l-.595-4.542c-.038-.208-13.842-15.984-13.842-15.984-.255-.282-3.094.227-3.471.277l-2.936.377A1.155,1.155,0,0,0,378.253,259.543Z" transform="translate(-378.052 -257.009)" fill="#e0e0e0"/>
          </g>
        </g>
        <g id="Group_582" data-name="Group 582" transform="translate(45.999 29.432)">
          <g id="Group_581" data-name="Group 581">
            <path id="Path_290" data-name="Path 290" d="M402.959,262.767c-.937-.773-1.865-1.893-2.8-2.671l-3.906,3.236-8.026,8.2a25.934,25.934,0,0,0,.334,3.911.9.9,0,0,0,.832.9l3.185.232a.9.9,0,0,0,.8-.385l6.651-9.01Z" transform="translate(-388.188 -260.096)" fill="#e0e0e0"/>
          </g>
        </g>
        <g id="Group_584" data-name="Group 584" transform="translate(11.037 64.031)">
          <g id="Group_583" data-name="Group 583" transform="translate(0 0)">
            <path id="Rectangle_33" data-name="Rectangle 33" d="M.671,0H9.25a.671.671,0,0,1,.671.671V2.2a.672.672,0,0,1-.672.672H.673A.673.673,0,0,1,0,2.2V.671A.671.671,0,0,1,.671,0Z" transform="translate(0 3.33) rotate(-19.611)" fill="#2f2f5b"/>
          </g>
        </g>
        <g id="Group_586" data-name="Group 586" transform="translate(19.585 27.835)">
          <g id="Group_585" data-name="Group 585">
            <path id="Path_291" data-name="Path 291" d="M374.167,259.127l-2.013,20.5,2.137,4.632,2.447-4.632-1.968-20.5Z" transform="translate(-372.154 -259.127)" fill="#2f2f5b"/>
          </g>
        </g>
        <g id="Group_588" data-name="Group 588" transform="translate(20.251 57.251)">
          <g id="Group_587" data-name="Group 587">
            <path id="Rectangle_34" data-name="Rectangle 34" d="M.378,0H3.564a.379.379,0,0,1,.379.379V3.564a.378.378,0,0,1-.378.378H.378A.378.378,0,0,1,0,3.564V.378A.378.378,0,0,1,.378,0Z" fill="#5755d9"/>
          </g>
        </g>
        <g id="Group_590" data-name="Group 590" transform="translate(26.567 27.361)">
          <g id="Group_589" data-name="Group 589">
            <path id="Path_292" data-name="Path 292" d="M387.566,258.839l-1.955,7.872-1.961,17.227-2.014,5.248-5.243.068,4.032-1.442,4.032-21.827Z" transform="translate(-376.393 -258.839)" fill="#d0d0d0"/>
          </g>
        </g>
        <g id="Group_592" data-name="Group 592" transform="translate(27.717 57.183)">
          <g id="Group_591" data-name="Group 591">
            <path id="Rectangle_35" data-name="Rectangle 35" d="M.218,0H.551A.217.217,0,0,1,.767.217V3.862a.217.217,0,0,1-.217.217H.218A.218.218,0,0,1,0,3.861V.218A.218.218,0,0,1,.218,0Z" fill="#5755d9"/>
          </g>
        </g>
        <g id="Group_594" data-name="Group 594" transform="translate(21.726 61.305)">
          <g id="Group_593" data-name="Group 593">
            <path id="Path_293" data-name="Path 293" d="M376.709,313.313l.6,29.313h-2.675l-.505-22.118-.31-10.317-.367-21.3,1.729-2.112,1.036-5.758.285-1.573-.04,1.6-.722,24.932Z" transform="translate(-373.454 -279.443)" fill="#2f2f5b"/>
          </g>
        </g>
        <g id="Group_596" data-name="Group 596" transform="translate(20.486 25.638)">
          <g id="Group_595" data-name="Group 595">
            <path id="Rectangle_36" data-name="Rectangle 36" d="M.677,0H2.1a.677.677,0,0,1,.677.677v1.2a.676.676,0,0,1-.676.676H.676A.676.676,0,0,1,0,1.877V.677A.677.677,0,0,1,.677,0Z" fill="#3c4a58"/>
          </g>
        </g>
        <g id="Group_598" data-name="Group 598" transform="translate(12.611 22.035)">
          <g id="Group_597" data-name="Group 597">
            <path id="Path_294" data-name="Path 294" d="M372.336,255.606l-4.415.814,6.409,5.679,2.017-2.97Z" transform="translate(-367.921 -255.606)" fill="#fff"/>
          </g>
        </g>
        <g id="Group_600" data-name="Group 600" transform="translate(22.354 22.035)">
          <g id="Group_599" data-name="Group 599">
            <path id="Path_295" data-name="Path 295" d="M377.849,255.606l4.415.814-6.41,5.679-2.019-2.97Z" transform="translate(-373.835 -255.606)" fill="#fff"/>
          </g>
        </g>
        <g id="Group_602" data-name="Group 602" transform="translate(32.164 27.312)">
          <g id="Group_601" data-name="Group 601">
            <path id="Path_296" data-name="Path 296" d="M382.718,266.831l-2.928-4.648,1.379-3.374Z" transform="translate(-379.79 -258.81)" fill="#d0d0d0"/>
          </g>
        </g>
        <g id="Group_604" data-name="Group 604" transform="translate(34.631 26.101)">
          <g id="Group_603" data-name="Group 603">
            <path id="Path_297" data-name="Path 297" d="M381.749,266.5l-.462-6.226,2.055-2.2Z" transform="translate(-381.287 -258.074)" fill="#d0d0d0"/>
          </g>
        </g>
        <g id="Group_606" data-name="Group 606" transform="translate(2.07 24.026)">
          <g id="Group_605" data-name="Group 605">
            <path id="Path_298" data-name="Path 298" d="M366.961,256.815l3.715,10.42-3.443,21.476a6.453,6.453,0,0,1-2.628.453c-1.361-.091-3.082-1.993-3.082-1.993l2.992-28.273A3.738,3.738,0,0,1,366.961,256.815Z" transform="translate(-361.523 -256.815)" fill="#e0e0e0"/>
          </g>
        </g>
        <g id="Group_608" data-name="Group 608" transform="translate(1.981 54.111)">
          <g id="Group_607" data-name="Group 607">
            <path id="Path_299" data-name="Path 299" d="M367.359,276.706,367,284.591l-1.631,11.056-3.9.09.09-20.389,4.259-.272Z" transform="translate(-361.469 -275.076)" fill="#e0e0e0"/>
          </g>
        </g>
        <g id="Group_610" data-name="Group 610" transform="translate(0 73.524)">
          <g id="Group_609" data-name="Group 609">
            <path id="Path_300" data-name="Path 300" d="M366.373,287.707a79.22,79.22,0,0,1-.783,9.463h-.521c-.759-1.844-.641-1.147-.346-3.993a1.7,1.7,0,0,0-1.425,1.5c-.119,1.127-.377,2.036.537,2.722a1.737,1.737,0,0,1,.769,1.049l.2.811c-3.087-1.545-3.758-1.644-3.992-2.687a13.19,13.19,0,0,1-.532-3.056L361,290.17c.015-.064,1.5-3.13,1.471-3.069C362.775,286.7,366.431,286.728,366.373,287.707Z" transform="translate(-360.266 -286.86)" fill="#eab99a"/>
          </g>
        </g>
        <g id="Group_611" data-name="Group 611" transform="translate(52.013 14.718)">
          <path id="Path_301" data-name="Path 301" d="M420.47,251.221a.17.17,0,0,0-.245-.008L391.894,277.5a.176.176,0,0,0-.023.231l.611.852a.2.2,0,0,0,.128.072h.013a.173.173,0,0,0,.124-.053l27.718-27.138A.172.172,0,0,0,420.47,251.221Z" transform="translate(-391.838 -251.165)" fill="#2f2f5b"/>
        </g>
        <g id="Group_613" data-name="Group 613" transform="translate(61.994 28.271)">
          <g id="Group_612" data-name="Group 612">
            <path id="Path_302" data-name="Path 302" d="M402.172,259.794l-.624-.267a1.683,1.683,0,0,0-1.529.105,4.006,4.006,0,0,0-1.351,1.2c-.522.9-1.008,1.923-.646,2.455a4.452,4.452,0,0,0,1.708,1.325C399.914,264.565,402.777,260.9,402.172,259.794Z" transform="translate(-397.897 -259.392)" fill="#f5c4a5"/>
          </g>
        </g>
      </g>
    </g>
  </g>
</svg>
