<svg xmlns="http://www.w3.org/2000/svg" width="112.018" height="80.008" viewBox="0 0 112.018 80.008">
  <g id="Group_526" data-name="Group 526" transform="translate(-25.506 -137.222)">
    <g id="Group_459" data-name="Group 459" transform="translate(30.306 159.95)">
      <g id="Group_452" data-name="Group 452" transform="translate(5.471)">
        <g id="Group_451" data-name="Group 451">
          <path id="Path_245" data-name="Path 245" d="M120.7,154.763V201.21a1.019,1.019,0,0,1-.081.413,1.21,1.21,0,0,1-1.17.825H34.11a1.206,1.206,0,0,1-1.157-.825,1.042,1.042,0,0,1-.079-.413V154.763a1.243,1.243,0,0,1,1.237-1.238h85.336A1.247,1.247,0,0,1,120.7,154.763Z" transform="translate(-32.873 -153.525)" fill="#5755d9"/>
        </g>
      </g>
      <g id="Group_454" data-name="Group 454" transform="translate(0 48.097)">
        <g id="Group_453" data-name="Group 453">
          <path id="Path_246" data-name="Path 246" d="M127.713,189.17a2.165,2.165,0,0,1-2.157,2.157H31.106a2.156,2.156,0,0,1-2.157-2.157,2.1,2.1,0,0,1,.333-1.145h98.1A2.1,2.1,0,0,1,127.713,189.17Z" transform="translate(-28.949 -188.025)" fill="#2f2f5b"/>
        </g>
      </g>
      <g id="Group_456" data-name="Group 456" transform="translate(43.674 48.1)">
        <g id="Group_455" data-name="Group 455">
          <path id="Path_247" data-name="Path 247" d="M60.276,188.027a2.881,2.881,0,0,0,2.6,1.649h6.2a2.875,2.875,0,0,0,2.6-1.649Z" transform="translate(-60.276 -188.027)" fill="#cfcfff"/>
        </g>
      </g>
      <g id="Group_458" data-name="Group 458" transform="translate(8.366 1.914)">
        <g id="Group_457" data-name="Group 457">
          <rect id="Rectangle_22" data-name="Rectangle 22" width="81.823" height="42.878" fill="#cfcfff"/>
        </g>
      </g>
    </g>
    <g id="Group_485" data-name="Group 485" transform="translate(87.85 172.872)">
      <g id="Group_476" data-name="Group 476" transform="translate(0 20.567)">
        <g id="Group_466" data-name="Group 466" transform="translate(5.106 11.49)">
          <g id="Group_461" data-name="Group 461" transform="translate(0.8 0.803)">
            <g id="Group_460" data-name="Group 460">
              <path id="Path_248" data-name="Path 248" d="M116.863,191.662H75.027a2.8,2.8,0,0,0,1.306-2.587c0-1.5-.836-2.71-1.872-2.71h42.968c-1.034,0-1.874,1.214-1.874,2.71A2.8,2.8,0,0,0,116.863,191.662Z" transform="translate(-74.461 -186.364)" fill="#e0e0e0"/>
            </g>
          </g>
          <g id="Group_463" data-name="Group 463">
            <g id="Group_462" data-name="Group 462">
              <path id="Path_249" data-name="Path 249" d="M118.456,186.591a.8.8,0,0,1-.8.8H74.687a.8.8,0,0,1-.8-.8h0a.8.8,0,0,1,.8-.8h42.967a.8.8,0,0,1,.8.8Z" transform="translate(-73.887 -185.788)" fill="#42429b"/>
            </g>
          </g>
          <g id="Group_465" data-name="Group 465" transform="translate(0 5.298)">
            <g id="Group_464" data-name="Group 464">
              <path id="Path_250" data-name="Path 250" d="M118.456,190.388a.8.8,0,0,1-.8.8H74.687a.8.8,0,0,1-.8-.8h0a.8.8,0,0,1,.8-.8h42.967a.8.8,0,0,1,.8.8Z" transform="translate(-73.887 -189.588)" fill="#42429b"/>
            </g>
          </g>
        </g>
        <g id="Group_473" data-name="Group 473" transform="translate(3.491)">
          <g id="Group_468" data-name="Group 468" transform="translate(0.701 0.704)">
            <g id="Group_467" data-name="Group 467">
              <path id="Path_251" data-name="Path 251" d="M110.426,182.7h-36.7a2.452,2.452,0,0,0,1.146-2.268c0-1.31-.735-2.377-1.642-2.377h37.687c-.9,0-1.641,1.066-1.641,2.377A2.453,2.453,0,0,0,110.426,182.7Z" transform="translate(-73.232 -178.051)" fill="#e0e0e0"/>
            </g>
          </g>
          <g id="Group_470" data-name="Group 470">
            <g id="Group_469" data-name="Group 469">
              <path id="Path_252" data-name="Path 252" d="M111.82,178.25a.7.7,0,0,1-.7.7H73.43a.7.7,0,0,1-.7-.7h0a.7.7,0,0,1,.7-.7h37.687a.7.7,0,0,1,.7.7Z" transform="translate(-72.729 -177.546)" fill="#42429b"/>
            </g>
          </g>
          <g id="Group_472" data-name="Group 472" transform="translate(0 4.647)">
            <g id="Group_471" data-name="Group 471">
              <path id="Path_253" data-name="Path 253" d="M111.82,181.58a.7.7,0,0,1-.7.7H73.43a.7.7,0,0,1-.7-.7h0a.7.7,0,0,1,.7-.7h37.687a.7.7,0,0,1,.7.7Z" transform="translate(-72.729 -180.879)" fill="#42429b"/>
            </g>
          </g>
        </g>
        <g id="Group_475" data-name="Group 475" transform="translate(0 5.666)">
          <g id="Group_474" data-name="Group 474">
            <path id="Rectangle_23" data-name="Rectangle 23" d="M.742,0H48.413a.741.741,0,0,1,.741.741V5.1a.741.741,0,0,1-.741.741H.741A.741.741,0,0,1,0,5.1V.742A.742.742,0,0,1,.742,0Z" fill="#2f2f5b"/>
          </g>
        </g>
      </g>
      <g id="Group_484" data-name="Group 484" transform="translate(12.609)">
        <g id="Group_479" data-name="Group 479" transform="translate(11.95 2.289)">
          <g id="Group_478" data-name="Group 478">
            <g id="Group_477" data-name="Group 477">
              <path id="Path_254" data-name="Path 254" d="M93.841,166c-.974-1.331-2.826-1.854-4.907-1.414l.51,1.867a2.778,2.778,0,0,1,2.836.685,2.486,2.486,0,0,1,.081,2.282,6.779,6.779,0,0,1-2.353,2.9l-.535.389a10.152,10.152,0,0,1-1.631,3.382,9.379,9.379,0,0,0,1.518-.908l1.784-1.3a8.581,8.581,0,0,0,3.021-3.775A4.237,4.237,0,0,0,93.841,166Z" transform="translate(-87.841 -164.435)" fill="#42429b"/>
            </g>
          </g>
        </g>
        <g id="Group_481" data-name="Group 481">
          <g id="Group_480" data-name="Group 480">
            <rect id="Rectangle_24" data-name="Rectangle 24" width="13.713" height="20.599" rx="1.733" fill="#2f2f5b"/>
          </g>
        </g>
        <g id="Group_483" data-name="Group 483" transform="translate(0 2.224)">
          <g id="Group_482" data-name="Group 482">
            <path id="Path_255" data-name="Path 255" d="M86.682,166.8v15.96h-5a2.41,2.41,0,0,1-2.416-2.416v-15.49a2.318,2.318,0,0,1,1.421-.468h3.575A2.418,2.418,0,0,1,86.682,166.8Z" transform="translate(-79.269 -164.389)" fill="#42429b"/>
          </g>
        </g>
      </g>
    </g>
    <g id="Group_503" data-name="Group 503" transform="translate(91.62 140.13)">
      <g id="Group_500" data-name="Group 500">
        <g id="Group_488" data-name="Group 488" transform="translate(6.324)">
          <g id="Group_487" data-name="Group 487">
            <g id="Group_486" data-name="Group 486">
              <path id="Path_256" data-name="Path 256" d="M104.211,144.645l-1.348,2.653L95.4,143.5a11.266,11.266,0,0,0-12.758,1.8c-.128.12-.245.236-.36.354a10.8,10.8,0,0,0-2,2.773,1.486,1.486,0,1,1-2.649-1.348,13.918,13.918,0,0,1,2.295-3.258,14.229,14.229,0,0,1,16.824-2.97Z" transform="translate(-77.466 -139.308)" fill="#354546"/>
            </g>
          </g>
        </g>
        <g id="Group_490" data-name="Group 490" transform="translate(0.251 4.454)">
          <g id="Group_489" data-name="Group 489">
            <path id="Path_257" data-name="Path 257" d="M83.954,147.252l-4.659,9.161a3.227,3.227,0,0,1-2.081,1.673,3.021,3.021,0,0,1-1.092.113,3.29,3.29,0,0,1-1.224-.349.455.455,0,0,1-.1-.066,3.134,3.134,0,0,1-1.309-1.34,2.821,2.821,0,0,1-.211-.5,3.272,3.272,0,0,1,.159-2.441l4.688-9.219a3.265,3.265,0,0,1,3.519-1.726,3.129,3.129,0,0,1,.885.293A3.2,3.2,0,0,1,84,144.392a1.975,1.975,0,0,1,.079.2,1.106,1.106,0,0,1,.067.166A3.212,3.212,0,0,1,83.954,147.252Z" transform="translate(-73.109 -142.502)" fill="#455556"/>
          </g>
        </g>
        <g id="Group_492" data-name="Group 492" transform="translate(0 6.202)">
          <g id="Group_491" data-name="Group 491">
            <path id="Path_258" data-name="Path 258" d="M79.1,145.928,75.752,152.5a1.483,1.483,0,0,1-.813.726,1.5,1.5,0,0,1-1.2-.066,1.386,1.386,0,0,1-.237-.153,1.492,1.492,0,0,1-.41-1.858l3.345-6.576a1.48,1.48,0,0,1,1.74-.76,1.411,1.411,0,0,1,.263.1A1.489,1.489,0,0,1,79.1,145.928Z" transform="translate(-72.929 -143.756)" fill="#354546"/>
          </g>
        </g>
        <g id="Group_495" data-name="Group 495" transform="translate(25.437 2.141)">
          <g id="Group_494" data-name="Group 494">
            <g id="Group_493" data-name="Group 493">
              <path id="Path_259" data-name="Path 259" d="M106.219,163.758a1.488,1.488,0,0,1-2.653-1.348,10.89,10.89,0,0,0,.551-1.28,9.938,9.938,0,0,0,.513-1.971,11.239,11.239,0,0,0-5.989-11.865l-7.466-3.8,1.348-2.653,7.467,3.8a14.241,14.241,0,0,1,7.516,15.34l0,.007A14,14,0,0,1,106.219,163.758Z" transform="translate(-91.175 -140.843)" fill="#354546"/>
            </g>
          </g>
        </g>
        <g id="Group_497" data-name="Group 497" transform="translate(31.598 20.389)">
          <g id="Group_496" data-name="Group 496">
            <path id="Path_260" data-name="Path 260" d="M95.951,164.885a3.268,3.268,0,0,0,1.432,4.4h0a3.269,3.269,0,0,0,4.4-1.432l4.661-9.165a3.271,3.271,0,0,0-1.433-4.4h0a3.268,3.268,0,0,0-4.394,1.432Z" transform="translate(-95.595 -153.933)" fill="#455556"/>
          </g>
        </g>
        <g id="Group_499" data-name="Group 499" transform="translate(36.674 24.852)">
          <g id="Group_498" data-name="Group 498">
            <path id="Path_261" data-name="Path 261" d="M99.4,164.531a1.5,1.5,0,0,0,.655,2.009h0a1.5,1.5,0,0,0,2.012-.654l3.345-6.579a1.5,1.5,0,0,0-.655-2.012h0a1.5,1.5,0,0,0-2.01.657Z" transform="translate(-99.236 -157.134)" fill="#354546"/>
          </g>
        </g>
      </g>
      <g id="Group_502" data-name="Group 502" style="mix-blend-mode: multiply;isolation: isolate">
        <g id="Group_501" data-name="Group 501">
          <path id="Path_262" data-name="Path 262" d="M103.346,143.3,102,145.948,97.185,143.5a11.266,11.266,0,0,0-12.758,1.8c-.128.12-.245.236-.36.354a1.977,1.977,0,0,1,.079.2,1.108,1.108,0,0,1,.067.166,3.212,3.212,0,0,1-.19,2.5l-4.659,9.161a3.227,3.227,0,0,1-2.081,1.673,3.021,3.021,0,0,1-1.092.113,3.29,3.29,0,0,1-1.224-.349.455.455,0,0,1-.1-.066,3.134,3.134,0,0,1-1.309-1.34,2.822,2.822,0,0,1-.211-.5,3.272,3.272,0,0,1,.159-2.441,1.492,1.492,0,0,1-.41-1.858l3.345-6.576a1.481,1.481,0,0,1,1.74-.76l.014-.025a3.265,3.265,0,0,1,3.519-1.726,14.229,14.229,0,0,1,16.824-2.97Z" transform="translate(-72.929 -139.308)" fill="#d5e5e6"/>
        </g>
      </g>
    </g>
    <g id="Group_516" data-name="Group 516" transform="translate(25.506 204.698)">
      <g id="Group_506" data-name="Group 506" transform="translate(16.335 3.685)">
        <g id="Group_505" data-name="Group 505">
          <g id="Group_504" data-name="Group 504">
            <path id="Path_263" data-name="Path 263" d="M37.263,191.674a.749.749,0,0,1,.053-.606c.98-1.762,2.111-2.7,3.36-2.8a3.5,3.5,0,0,1,2.767,1.344.75.75,0,0,1-1.188.915,2,2,0,0,0-1.478-.764c-.7.057-1.446.757-2.151,2.028a.75.75,0,0,1-1.02.29A.735.735,0,0,1,37.263,191.674Z" transform="translate(-37.223 -188.265)" fill="#556566"/>
          </g>
        </g>
      </g>
      <g id="Group_509" data-name="Group 509" transform="translate(1.599 2.182)">
        <g id="Group_508" data-name="Group 508">
          <g id="Group_507" data-name="Group 507">
            <path id="Path_264" data-name="Path 264" d="M26.694,188.178a.749.749,0,0,1,1.416-.485,11.423,11.423,0,0,0,5.07,6.232.748.748,0,1,1-.746,1.3A12.913,12.913,0,0,1,26.694,188.178Z" transform="translate(-26.652 -187.187)" fill="#657576"/>
          </g>
        </g>
      </g>
      <g id="Group_512" data-name="Group 512" transform="translate(6.257 4.552)">
        <g id="Group_511" data-name="Group 511">
          <g id="Group_510" data-name="Group 510">
            <path id="Path_265" data-name="Path 265" d="M30.075,194.39a1.5,1.5,0,0,1,2.164-1.783,9,9,0,0,0,7.495.8,8.861,8.861,0,0,0,4.707-3.8,1.5,1.5,0,0,1,2.551,1.57,11.827,11.827,0,0,1-6.285,5.07,12.127,12.127,0,0,1-9.962-1.037A1.491,1.491,0,0,1,30.075,194.39Z" transform="translate(-29.994 -188.887)" fill="#455556"/>
          </g>
        </g>
      </g>
      <g id="Group_515" data-name="Group 515">
        <g id="Group_514" data-name="Group 514">
          <g id="Group_513" data-name="Group 513">
            <path id="Path_266" data-name="Path 266" d="M28.16,190.112a1.7,1.7,0,0,1-2.155-1.054l-.407-1.189a1.7,1.7,0,0,1,1.055-2.155h0a1.7,1.7,0,0,1,2.154,1.055l.408,1.188a1.7,1.7,0,0,1-1.055,2.155Z" transform="translate(-25.506 -185.622)" fill="#263536"/>
          </g>
        </g>
      </g>
    </g>
    <g id="Group_524" data-name="Group 524" transform="translate(41.829 137.222)">
      <g id="Group_518" data-name="Group 518" transform="translate(0.364 16.504)">
        <g id="Group_517" data-name="Group 517">
          <path id="Path_267" data-name="Path 267" d="M55.4,155.826a9.317,9.317,0,0,0-17.922,0Z" transform="translate(-37.475 -149.06)" fill="#263536"/>
        </g>
      </g>
      <g id="Group_520" data-name="Group 520">
        <g id="Group_519" data-name="Group 519">
          <path id="Path_268" data-name="Path 268" d="M55.863,146.546a9.325,9.325,0,1,1-9.324-9.324A9.325,9.325,0,0,1,55.863,146.546Z" transform="translate(-37.214 -137.222)" fill="#354546"/>
        </g>
      </g>
      <g id="Group_523" data-name="Group 523" transform="translate(5.854 6.183)">
        <g id="Group_521" data-name="Group 521" transform="translate(0.661 0.661)">
          <path id="Path_269" data-name="Path 269" d="M47.507,144.94a2.81,2.81,0,1,1-2.809-2.809A2.81,2.81,0,0,1,47.507,144.94Z" transform="translate(-41.887 -142.131)" fill="#c5d5d6"/>
        </g>
        <g id="Group_522" data-name="Group 522">
          <path id="Path_270" data-name="Path 270" d="M44.884,148.6a3.471,3.471,0,1,1,3.47-3.471A3.474,3.474,0,0,1,44.884,148.6Zm0-5.621a2.151,2.151,0,1,0,2.15,2.15A2.153,2.153,0,0,0,44.884,142.977Z" transform="translate(-41.413 -141.657)" fill="#263536"/>
        </g>
      </g>
    </g>
    <g id="Group_525" data-name="Group 525" transform="translate(74.613 174.23)">
      <path id="Path_271" data-name="Path 271" d="M60.73,163.768l11.318,8.179L60.73,180.125Z" transform="translate(-60.73 -163.768)" fill="#42429b"/>
    </g>
  </g>
</svg>
